SplineFontDB: 3.2
FontName: Vegur-Bold
FullName: Vegur-Bold
FamilyName: Vegur
Weight: Bold
Copyright: copyright missing
Version: 007.000
ItalicAngle: 0
UnderlinePosition: -100
UnderlineWidth: 50
Ascent: 765
Descent: 235
InvalidEm: 0
sfntRevision: 0x00010000
LayerCount: 2
Layer: 0 0 "Back" 1
Layer: 1 0 "Fore" 0
XUID: [1021 815 -1288924735 16698]
StyleMap: 0x0020
FSType: 8
OS2Version: 3
OS2_WeightWidthSlopeOnly: 0
OS2_UseTypoMetrics: 0
CreationTime: 1360497785
ModificationTime: 1621348328
PfmFamily: 81
TTFWeight: 700
TTFWidth: 5
LineGap: 0
VLineGap: 0
Panose: 0 0 8 0 0 0 0 0 0 0
OS2TypoAscent: 765
OS2TypoAOffset: 0
OS2TypoDescent: -235
OS2TypoDOffset: 0
OS2TypoLinegap: 200
OS2WinAscent: 965
OS2WinAOffset: 0
OS2WinDescent: 235
OS2WinDOffset: 0
HheadAscent: 965
HheadAOffset: 0
HheadDescent: -235
HheadDOffset: 0
OS2SubXSize: 650
OS2SubYSize: 600
OS2SubXOff: 0
OS2SubYOff: 75
OS2SupXSize: 650
OS2SupYSize: 600
OS2SupXOff: 0
OS2SupYOff: 350
OS2StrikeYSize: 50
OS2StrikeYPos: 286
OS2CapHeight: 688
OS2XHeight: 478
OS2Vendor: 'UKWN'
OS2CodePages: 20000011.00000000
OS2UnicodeRanges: 00000003.00000000.00000000.00000000
Lookup: 4 0 1 "'liga' Standard Ligatures in Latin lookup 0" { "'liga' Standard Ligatures in Latin lookup 0 subtable"  } ['liga' ('DFLT' <'dflt' > 'latn' <'dflt' > ) ]
Lookup: 257 0 0 "'cpsp' Capital Spacing in Latin lookup 0" { "'cpsp' Capital Spacing in Latin lookup 0 subtable"  } ['cpsp' ('DFLT' <'dflt' > 'latn' <'dflt' > ) ]
Lookup: 258 0 0 "'kern' Horizontal Kerning in Latin lookup 1" { "'kern' Horizontal Kerning in Latin lookup 1 per glyph data 0"  "'kern' Horizontal Kerning in Latin lookup 1 kerning class 1"  } ['kern' ('DFLT' <'dflt' > 'latn' <'dflt' > ) ]
DEI: 91125
KernClass2: 14+ 24 "'kern' Horizontal Kerning in Latin lookup 1 kerning class 1"
 1 X
 1 Q
 51 O Oacute Ocircumflex Odieresis Ograve Oslash Otilde
 37 U Uacute Ucircumflex Udieresis Ugrave
 1 r
 1 L
 1 T
 37 W Wacute Wcircumflex Wdieresis Wgrave
 1 F

StartChar: .notdef
Encoding: 65536 -1 0
Width: 500
Flags: MW
HStem: 0 50<80 420 80 500> 650 50<80 420 80 80>
VStem: 0 50<95 605 95 700> 450 50<95 605 605 605>
LayerCount: 2
Fore
SplineSet
0 0 m 1
 0 700 l 1
 500 700 l 1
 500 0 l 1
 0 0 l 1
250 395 m 1
 420 650 l 1
 80 650 l 1
 250 395 l 1
280 350 m 1
 450 95 l 1
 450 605 l 1
 280 350 l 1
80 50 m 1
 420 50 l 1
 250 305 l 1
 80 50 l 1
50 605 m 1
 50 95 l 1
 220 350 l 1
 50 605 l 1
EndSplineSet
Validated: 1
EndChar

StartChar: A
Encoding: 65 65 1
Width: 633
Flags: MW
HStem: 206 112<241 387 241 421 207 387>
VStem: 3 626<0 0>
LayerCount: 2
Fore
SplineSet
421 206 m 1
 207 206 l 1
 145 0 l 1
 3 0 l 1
 237 688 l 1
 395 688 l 1
 629 0 l 1
 483 0 l 1
 421 206 l 1
387 318 m 1
 314 561 l 1
 241 318 l 1
 387 318 l 1
EndSplineSet
Validated: 1
Position2: "'cpsp' Capital Spacing in Latin lookup 0 subtable" dx=5 dy=0 dh=10 dv=0
EndChar

StartChar: Aacute
Encoding: 193 193 2
Width: 633
Flags: MW
HStem: 206 112<207 387 241 387 241 421> 738.5 133.5
VStem: 3 626<0 0>
LayerCount: 2
Fore
SplineSet
361 742 m 1
 264 735 l 1
 333 868 l 1
 473 876 l 1
 361 742 l 1
207 206 m 1
 145 0 l 1
 3 0 l 1
 237 688 l 1
 395 688 l 1
 629 0 l 1
 483 0 l 1
 421 206 l 1
 207 206 l 1
314 561 m 1
 241 318 l 1
 387 318 l 1
 314 561 l 1
EndSplineSet
Validated: 1
Position2: "'cpsp' Capital Spacing in Latin lookup 0 subtable" dx=5 dy=0 dh=10 dv=0
EndChar

StartChar: Abreve
Encoding: 258 258 3
Width: 633
Flags: MW
HStem: 206 112<207 387 241 387 241 421> 737 69<302.5 329.5 302.5 354.5>
VStem: 195 73<824.5 865> 364 73<824.5 865>
LayerCount: 2
Fore
SplineSet
195 865 m 1
 268 865 l 1
 270 826 289 806 316 806 c 0
 343 806 362 826 364 865 c 1
 437 865 l 1
 437 784 393 737 316 737 c 0
 238 737 195 784 195 865 c 1
207 206 m 1
 145 0 l 1
 3 0 l 1
 237 688 l 1
 395 688 l 1
 629 0 l 1
 483 0 l 1
 421 206 l 1
 207 206 l 1
314 561 m 1
 241 318 l 1
 387 318 l 1
 314 561 l 1
EndSplineSet
Validated: 1
EndChar

StartChar: Acircumflex
Encoding: 194 194 4
Width: 633
Flags: MW
HStem: 206 112<207 387 241 387 241 421> 736 135<263 282 184 370 350 370 263 449 350 350>
VStem: 3 626<0 0>
LayerCount: 2
Fore
SplineSet
449 736 m 5
 350 736 l 5
 316 814 l 5
 282 736 l 5
 184 736 l 5
 263 871 l 5
 370 871 l 5
 449 736 l 5
207 206 m 1
 145 0 l 1
 3 0 l 1
 237 688 l 1
 395 688 l 1
 629 0 l 1
 483 0 l 1
 421 206 l 1
 207 206 l 1
314 561 m 1
 241 318 l 1
 387 318 l 1
 314 561 l 1
EndSplineSet
Validated: 1
Position2: "'cpsp' Capital Spacing in Latin lookup 0 subtable" dx=5 dy=0 dh=10 dv=0
EndChar

StartChar: Adieresis
Encoding: 196 196 5
Width: 633
Flags: MW
HStem: 206 112<207 387 241 387 241 421> 731 126<203.5 238.5 393.5 428.5>
VStem: 158 126<776.5 811.5> 348 126<776.5 811.5>
LayerCount: 2
Fore
SplineSet
221 857 m 0
 256 857 284 829 284 794 c 0
 284 759 256 731 221 731 c 0
 186 731 158 759 158 794 c 0
 158 829 186 857 221 857 c 0
411 857 m 0
 446 857 474 829 474 794 c 0
 474 759 446 731 411 731 c 0
 376 731 348 759 348 794 c 0
 348 829 376 857 411 857 c 0
207 206 m 1
 145 0 l 1
 3 0 l 1
 237 688 l 1
 395 688 l 1
 629 0 l 1
 483 0 l 1
 421 206 l 1
 207 206 l 1
314 561 m 1
 241 318 l 1
 387 318 l 1
 314 561 l 1
EndSplineSet
Validated: 1
Position2: "'cpsp' Capital Spacing in Latin lookup 0 subtable" dx=5 dy=0 dh=10 dv=0
EndChar

StartChar: Agrave
Encoding: 192 192 6
Width: 633
Flags: MW
HStem: 206 112<207 387 241 387 241 421> 738.5 133.5
VStem: 3 626<0 0>
LayerCount: 2
Fore
SplineSet
298 868 m 1
 367 735 l 1
 270 742 l 1
 158 876 l 1
 298 868 l 1
207 206 m 1
 145 0 l 1
 3 0 l 1
 237 688 l 1
 395 688 l 1
 629 0 l 1
 483 0 l 1
 421 206 l 1
 207 206 l 1
314 561 m 1
 241 318 l 1
 387 318 l 1
 314 561 l 1
EndSplineSet
Validated: 1
Position2: "'cpsp' Capital Spacing in Latin lookup 0 subtable" dx=5 dy=0 dh=10 dv=0
EndChar

StartChar: Aring
Encoding: 197 197 7
Width: 633
Flags: MW
HStem: 206 112<207 387 241 387 241 421> 720 48<307.5 324.5 307.5 340.5> 840 48<307.5 324.5>
VStem: 221 63<793 814.5 793 831.5> 348 63<793 814.5>
LayerCount: 2
Fore
SplineSet
316 888 m 0
 365 888 411 859 411 804 c 0
 411 749 365 720 316 720 c 0
 267 720 221 749 221 804 c 0
 221 859 267 888 316 888 c 0
316 840 m 0
 299 840 284 825 284 804 c 0
 284 782 299 768 316 768 c 0
 333 768 348 782 348 804 c 0
 348 825 333 840 316 840 c 0
207 206 m 1
 145 0 l 1
 3 0 l 1
 237 688 l 1
 395 688 l 1
 629 0 l 1
 483 0 l 1
 421 206 l 1
 207 206 l 1
314 561 m 1
 241 318 l 1
 387 318 l 1
 314 561 l 1
EndSplineSet
Validated: 1
Position2: "'cpsp' Capital Spacing in Latin lookup 0 subtable" dx=5 dy=0 dh=10 dv=0
EndChar

StartChar: Atilde
Encoding: 195 195 8
Width: 633
Flags: MW
HStem: 206 112<207 387 241 387 241 421> 750 109<237 244 182 268.5> 751 81<364.5 370 358.5 395>
VStem: 182 62<750 756.5 750 773 750 803.5> 388 62<853.5 860>
LayerCount: 2
Fore
SplineSet
450 860 m 1xd8
 450 837 l 2
 450 776 417 751 373 751 c 0
 356 751 334 758 310 767 c 0
 289 775 276 778 267 778 c 0
 253 778 244 763 244 750 c 1
 182 750 l 1
 182 773 l 2
 182 834 215 859 259 859 c 0xd8
 278 859 297 852 321 843 c 0
 341 835 354 832 363 832 c 0xb8
 377 832 388 847 388 860 c 1
 450 860 l 1xd8
207 206 m 1
 145 0 l 1
 3 0 l 1
 237 688 l 1
 395 688 l 1
 629 0 l 1
 483 0 l 1
 421 206 l 1
 207 206 l 1
314 561 m 1
 241 318 l 1
 387 318 l 1
 314 561 l 1
EndSplineSet
Validated: 1
Position2: "'cpsp' Capital Spacing in Latin lookup 0 subtable" dx=5 dy=0 dh=10 dv=0
EndChar

StartChar: AE
Encoding: 198 198 9
Width: 882
Flags: MW
HStem: 0 112<590 853 590 853 481 853> 206 112<298 444 298 457 249 444> 291 112<567 799 567 567> 572 112<532 825 532 532>
VStem: 17 836<0 112>
LayerCount: 2
Fore
SplineSet
853 112 m 1xb8
 853 0 l 1
 481 0 l 1
 457 206 l 1
 249 206 l 1xd8
 158 0 l 1
 17 0 l 1
 347 684 l 1
 825 684 l 1
 825 572 l 1
 532 572 l 1
 553 403 l 1
 799 403 l 1
 799 291 l 1
 567 291 l 1
 590 112 l 1
 853 112 l 1xb8
444 318 m 1
 413 579 l 1
 298 318 l 1
 444 318 l 1
EndSplineSet
Validated: 1
Position2: "'cpsp' Capital Spacing in Latin lookup 0 subtable" dx=5 dy=0 dh=10 dv=0
EndChar

StartChar: B
Encoding: 66 66 10
Width: 541
Flags: HMW
HStem: -14 112<234 274 234 301.5> 286 107<188 223 188 223 223 235> 586 112<234.5 283>
VStem: 56 132<100 286 100 393 393 584> 358 140 362 140<157.5 219>
LayerCount: 2
Fore
SplineSet
56 0 m 1xf4
 56 687 l 1
 112 694 194 698 236 698 c 0
 405 698 497 626 498 514 c 0xf8
 498.008218312 513.260351904 498.012316644 512.523202812 498.012316644 511.78855106 c 0
 498.012316644 423.131155292 438.326098402 370.843852069 357 352 c 1
 453 337 502 272 502 189 c 0
 502 51 376 -14 227 -14 c 0
 172 -14 98 -9 56 0 c 1xf4
188 393 m 1
 223 393 l 2
 308 393 358 429 358 492 c 0
 358 543 321 586 245 586 c 0
 224 586 208 586 188 584 c 1
 188 393 l 1
188 286 m 1
 188 100 l 1
 206 98 225 98 243 98 c 0
 305 98 362 128 362 187 c 0xf4
 362 251 319 286 235 286 c 2
 188 286 l 1
EndSplineSet
Validated: 524289
Position2: "'cpsp' Capital Spacing in Latin lookup 0 subtable" dx=5 dy=0 dh=10 dv=0
EndChar

StartChar: C
Encoding: 67 67 11
Width: 614
Flags: MW
HStem: -14 112<335.5 418.5> 590 112<344.5 441>
VStem: 38 142<272 430 272 459>
LayerCount: 2
Fore
SplineSet
575 142 m 1
 585 29 l 1
 529 -1 455 -14 382 -14 c 0
 180 -14 38 108 38 341 c 0
 38 577 209 702 405 702 c 0
 492 702 554 686 595 662 c 1
 582 548 l 1
 536 573 477 590 405 590 c 0
 284 590 180 508 180 352 c 0
 180 192 269 98 402 98 c 0
 464 98 516 112 575 142 c 1
EndSplineSet
Validated: 1
Position2: "'cpsp' Capital Spacing in Latin lookup 0 subtable" dx=5 dy=0 dh=10 dv=0
EndChar

StartChar: Ccedilla
Encoding: 199 199 12
Width: 614
Flags: MW
HStem: -201 66<322 346.5 322 367.5> -14 112<401 401> 590 112<344.5 441>
VStem: 38 142<272 430 272 459> 375 84<-116 -99>
LayerCount: 2
Fore
SplineSet
575 142 m 1
 585 29 l 1
 534 2 467 -12 401 -14 c 1
 389 -34 l 1
 437 -39 459 -70 459 -109 c 0
 459 -171 404 -201 331 -201 c 0
 306 -201 277 -196 255 -184 c 1
 282 -126 l 1
 298 -133 312 -135 332 -135 c 0
 361 -135 375 -123 375 -109 c 0
 375 -89 356 -79 300 -79 c 1
 331 -11 l 1
 156 8 38 128 38 341 c 0
 38 577 209 702 405 702 c 0
 492 702 554 686 595 662 c 1
 582 548 l 1
 536 573 477 590 405 590 c 0
 284 590 180 508 180 352 c 0
 180 192 269 98 402 98 c 0
 464 98 516 112 575 142 c 1
EndSplineSet
Validated: 1
Position2: "'cpsp' Capital Spacing in Latin lookup 0 subtable" dx=5 dy=0 dh=10 dv=0
EndChar

StartChar: D
Encoding: 68 68 13
Width: 681
Flags: MW
HStem: -14 112<245.5 329.5 245.5 352.5> 586 112<259.5 352.5>
VStem: 56 132<102 580 102 684 102 684> 506 142<268.5 411.5>
LayerCount: 2
Fore
SplineSet
56 -1 m 1
 56 684 l 1
 120 693 203 698 259 698 c 0
 515 698 648 565 648 356 c 0
 648 122 470 -14 235 -14 c 0
 183 -14 110 -10 56 -1 c 1
188 580 m 1
 188 102 l 1
 212 99 238 98 253 98 c 0
 406 98 506 193 506 344 c 0
 506 479 435 586 270 586 c 0
 249 586 218 584 188 580 c 1
EndSplineSet
Validated: 1
Position2: "'cpsp' Capital Spacing in Latin lookup 0 subtable" dx=5 dy=0 dh=10 dv=0
EndChar

StartChar: E
Encoding: 69 69 14
Width: 505
Flags: MW
HStem: 0 112<188 476 188 476> 291 112<188 440 188 440> 572 112<188 472 188 188>
VStem: 56 132<112 291 403 572>
LayerCount: 2
Fore
SplineSet
472 572 m 1
 188 572 l 1
 188 403 l 1
 440 403 l 1
 440 291 l 1
 188 291 l 1
 188 112 l 1
 476 112 l 1
 476 0 l 1
 56 0 l 1
 56 684 l 1
 472 684 l 1
 472 572 l 1
EndSplineSet
Validated: 1
Position2: "'cpsp' Capital Spacing in Latin lookup 0 subtable" dx=5 dy=0 dh=10 dv=0
EndChar

StartChar: Eacute
Encoding: 201 201 15
Width: 505
Flags: MW
HStem: 0 112<188 476 188 476> 291 112<188 440 188 440> 572 112<188 188 188 472> 738.5 133.5
VStem: 56 132<112 291 403 572>
LayerCount: 2
Fore
SplineSet
315 742 m 5
 218 735 l 5
 287 868 l 5
 427 876 l 5
 315 742 l 5
188 572 m 1
 188 403 l 1
 440 403 l 1
 440 291 l 1
 188 291 l 1
 188 112 l 1
 476 112 l 1
 476 0 l 1
 56 0 l 1
 56 684 l 1
 472 684 l 1
 472 572 l 1
 188 572 l 1
EndSplineSet
Validated: 1
Position2: "'cpsp' Capital Spacing in Latin lookup 0 subtable" dx=5 dy=0 dh=10 dv=0
EndChar

StartChar: Ecircumflex
Encoding: 202 202 16
Width: 505
Flags: MW
HStem: 0 112<188 476 188 476> 291 112<188 440 188 440> 572 112<188 188 188 472> 736 135<217 236 138 324 304 324 217 403 304 304>
VStem: 56 132<112 291 403 572>
LayerCount: 2
Fore
SplineSet
403 736 m 1
 304 736 l 1
 270 814 l 1
 236 736 l 1
 138 736 l 1
 217 871 l 1
 324 871 l 1
 403 736 l 1
188 572 m 1
 188 403 l 1
 440 403 l 1
 440 291 l 1
 188 291 l 1
 188 112 l 1
 476 112 l 1
 476 0 l 1
 56 0 l 1
 56 684 l 1
 472 684 l 1
 472 572 l 1
 188 572 l 1
EndSplineSet
Validated: 1
Position2: "'cpsp' Capital Spacing in Latin lookup 0 subtable" dx=5 dy=0 dh=10 dv=0
EndChar

StartChar: Edieresis
Encoding: 203 203 17
Width: 505
Flags: MW
HStem: 0 112<188 476 188 476> 291 112<188 440 188 440> 572 112<188 472 188 188> 731 126<157.5 192.5 347.5 382.5>
VStem: 56 132<112 291 403 572> 112 126<776.5 811.5> 302 126<776.5 811.5>
LayerCount: 2
Fore
SplineSet
175 857 m 0xf6
 210 857 238 829 238 794 c 0
 238 759 210 731 175 731 c 0
 140 731 112 759 112 794 c 0
 112 829 140 857 175 857 c 0xf6
365 857 m 0
 400 857 428 829 428 794 c 0
 428 759 400 731 365 731 c 0
 330 731 302 759 302 794 c 0
 302 829 330 857 365 857 c 0
472 572 m 1
 188 572 l 1
 188 403 l 1
 440 403 l 1
 440 291 l 1
 188 291 l 1
 188 112 l 1
 476 112 l 1
 476 0 l 1
 56 0 l 1
 56 684 l 1xe8
 472 684 l 1
 472 572 l 1
EndSplineSet
Validated: 1
Position2: "'cpsp' Capital Spacing in Latin lookup 0 subtable" dx=5 dy=0 dh=10 dv=0
EndChar

StartChar: Egrave
Encoding: 200 200 18
Width: 505
Flags: MW
HStem: 0 112<188 476 188 476> 291 112<188 440 188 440> 572 112<188 472 188 188> 738.5 133.5
VStem: 56 132<112 291 403 572>
LayerCount: 2
Fore
SplineSet
252 868 m 1
 321 735 l 1
 224 742 l 1
 112 876 l 1
 252 868 l 1
472 572 m 1
 188 572 l 1
 188 403 l 1
 440 403 l 1
 440 291 l 1
 188 291 l 1
 188 112 l 1
 476 112 l 1
 476 0 l 1
 56 0 l 1
 56 684 l 1
 472 684 l 1
 472 572 l 1
EndSplineSet
Validated: 1
Position2: "'cpsp' Capital Spacing in Latin lookup 0 subtable" dx=5 dy=0 dh=10 dv=0
EndChar

StartChar: F
Encoding: 70 70 19
Width: 484
Flags: MW
HStem: 257 112<188 440 188 440> 572 112<188 472 188 188>
VStem: 56 132<0 257 369 572>
LayerCount: 2
Fore
SplineSet
472 572 m 1
 188 572 l 1
 188 369 l 1
 440 369 l 1
 440 257 l 1
 188 257 l 1
 188 0 l 1
 56 0 l 1
 56 684 l 1
 472 684 l 1
 472 572 l 1
EndSplineSet
Validated: 1
Position2: "'cpsp' Capital Spacing in Latin lookup 0 subtable" dx=5 dy=0 dh=10 dv=0
EndChar

StartChar: G
Encoding: 71 71 20
Width: 649
Flags: MW
HStem: -14 112<317 391.5 317 407.5> 250 112<357 464 357 596> 590 112<346 442>
VStem: 38 142<257.5 423.5 257.5 453> 464 132<111 250 250 250>
LayerCount: 2
Fore
SplineSet
596 362 m 1
 596 24 l 1
 530 -2 445 -14 370 -14 c 0
 177 -14 38 97 38 332 c 0
 38 574 205 702 406 702 c 0
 493 702 558 686 599 662 c 1
 586 548 l 1
 540 573 478 590 406 590 c 0
 286 590 180 504 180 343 c 0
 180 172 255 98 379 98 c 0
 404 98 436 102 464 111 c 1
 464 250 l 1
 357 250 l 1
 357 362 l 1
 596 362 l 1
EndSplineSet
Validated: 1
Position2: "'cpsp' Capital Spacing in Latin lookup 0 subtable" dx=5 dy=0 dh=10 dv=0
EndChar

StartChar: Gbreve
Encoding: 286 286 21
Width: 649
Flags: MW
HStem: -14 112<317 391.5 317 407.5> 250 112<357 464 357 596> 590 112<346 442> 737 69<352.5 379.5 352.5 404.5>
VStem: 38 142<257.5 423.5 257.5 453> 245 73<824.5 865> 414 73<824.5 865> 464 132<111 250 250 250>
LayerCount: 2
Fore
SplineSet
245 865 m 1xfd
 318 865 l 1
 320 826 339 806 366 806 c 0
 393 806 412 826 414 865 c 1
 487 865 l 1xfe
 487 784 443 737 366 737 c 0
 288 737 245 784 245 865 c 1xfd
596 362 m 1xfd
 596 24 l 1
 530 -2 445 -14 370 -14 c 0
 177 -14 38 97 38 332 c 0
 38 574 205 702 406 702 c 0
 493 702 558 686 599 662 c 1
 586 548 l 1
 540 573 478 590 406 590 c 0
 286 590 180 504 180 343 c 0
 180 172 255 98 379 98 c 0
 404 98 436 102 464 111 c 1
 464 250 l 1
 357 250 l 1
 357 362 l 1
 596 362 l 1xfd
EndSplineSet
Validated: 1
EndChar

StartChar: H
Encoding: 72 72 22
Width: 688
Flags: MW
HStem: 291 112<188 500 188 500>
VStem: 56 132<0 291 0 403 403 688> 500 132<0 291 291 291 403 688>
LayerCount: 2
Fore
SplineSet
632 0 m 1
 500 0 l 1
 500 291 l 1
 188 291 l 1
 188 0 l 1
 56 0 l 1
 56 688 l 1
 188 688 l 1
 188 403 l 1
 500 403 l 1
 500 688 l 1
 632 688 l 1
 632 0 l 1
EndSplineSet
Validated: 1
Position2: "'cpsp' Capital Spacing in Latin lookup 0 subtable" dx=5 dy=0 dh=10 dv=0
EndChar

StartChar: I
Encoding: 73 73 23
Width: 244
Flags: MW
HStem: 0 688<56 188 56 188>
VStem: 56 132<0 688>
LayerCount: 2
Fore
SplineSet
188 0 m 1
 56 0 l 1
 56 688 l 1
 188 688 l 1
 188 0 l 1
EndSplineSet
Validated: 1
Position2: "'cpsp' Capital Spacing in Latin lookup 0 subtable" dx=5 dy=0 dh=10 dv=0
EndChar

StartChar: IJ
Encoding: 306 306 24
Width: 559
Flags: MW
HStem: -214 902<56 226>
VStem: 56 132<0 688 0 688> 375 132<120 688>
LayerCount: 2
Fore
SplineSet
56 0 m 1
 56 688 l 1
 188 688 l 1
 188 0 l 1
 56 0 l 1
507 688 m 1
 507 117 l 2
 507 -87 383 -181 226 -214 c 1
 186 -108 l 1
 316 -73 375 -16 375 120 c 2
 375 688 l 1
 507 688 l 1
EndSplineSet
Validated: 1
Position2: "'cpsp' Capital Spacing in Latin lookup 0 subtable" dx=5 dy=0 dh=10 dv=0
EndChar

StartChar: Iacute
Encoding: 205 205 25
Width: 244
Flags: MW
HStem: 738.5 133.5
VStem: 56 132<0 688 0 688>
LayerCount: 2
Fore
SplineSet
167 742 m 1
 70 735 l 1
 139 868 l 1
 279 876 l 1
 167 742 l 1
56 0 m 1
 56 688 l 1
 188 688 l 1
 188 0 l 1
 56 0 l 1
EndSplineSet
Validated: 1
Position2: "'cpsp' Capital Spacing in Latin lookup 0 subtable" dx=5 dy=0 dh=10 dv=0
EndChar

StartChar: Icircumflex
Encoding: 206 206 26
Width: 244
Flags: MW
HStem: 736 135<69 88 -10 176 156 176 69 255 156 156>
VStem: 56 132<0 688 0 688>
LayerCount: 2
Fore
SplineSet
255 736 m 1
 156 736 l 1
 122 814 l 1
 88 736 l 1
 -10 736 l 1
 69 871 l 1
 176 871 l 1
 255 736 l 1
56 0 m 1
 56 688 l 1
 188 688 l 1
 188 0 l 1
 56 0 l 1
EndSplineSet
Validated: 1
Position2: "'cpsp' Capital Spacing in Latin lookup 0 subtable" dx=5 dy=0 dh=10 dv=0
EndChar

StartChar: Idieresis
Encoding: 207 207 27
Width: 244
Flags: MW
HStem: 731 126<9.5 44.5 199.5 234.5>
VStem: -36 126<776.5 811.5> 56 132<0 688 0 688> 154 126<776.5 811.5>
LayerCount: 2
Fore
SplineSet
27 857 m 0xa0
 62 857 90 829 90 794 c 0xa0
 90 759 62 731 27 731 c 0
 -8 731 -36 759 -36 794 c 0xc0
 -36 829 -8 857 27 857 c 0xa0
217 857 m 0
 252 857 280 829 280 794 c 0x90
 280 759 252 731 217 731 c 0
 182 731 154 759 154 794 c 0
 154 829 182 857 217 857 c 0
56 0 m 1
 56 688 l 1
 188 688 l 1
 188 0 l 1
 56 0 l 1
EndSplineSet
Validated: 1
Position2: "'cpsp' Capital Spacing in Latin lookup 0 subtable" dx=5 dy=0 dh=10 dv=0
EndChar

StartChar: Idotaccent
Encoding: 304 304 28
Width: 244
Flags: MW
HStem: 731 140<101 143>
VStem: 56 132<0 688 0 688>
LayerCount: 2
Fore
SplineSet
122 871 m 0
 164 871 198 840 198 801 c 0
 198 762 164 731 122 731 c 0
 80 731 46 762 46 801 c 0
 46 840 80 871 122 871 c 0
56 0 m 1
 56 688 l 1
 188 688 l 1
 188 0 l 1
 56 0 l 1
EndSplineSet
Validated: 1
EndChar

StartChar: Igrave
Encoding: 204 204 29
Width: 244
Flags: MW
HStem: 738.5 133.5
VStem: 56 132<0 688 0 688>
LayerCount: 2
Fore
SplineSet
104 868 m 1
 173 735 l 1
 76 742 l 1
 -36 876 l 1
 104 868 l 1
56 0 m 1
 56 688 l 1
 188 688 l 1
 188 0 l 1
 56 0 l 1
EndSplineSet
Validated: 1
Position2: "'cpsp' Capital Spacing in Latin lookup 0 subtable" dx=5 dy=0 dh=10 dv=0
EndChar

StartChar: J
Encoding: 74 74 30
Width: 315
Flags: MW
HStem: -214 902<-18 263>
VStem: 131 132<120 688>
LayerCount: 2
Fore
SplineSet
263 688 m 1
 263 117 l 2
 263 -87 139 -181 -18 -214 c 1
 -58 -108 l 1
 72 -73 131 -16 131 120 c 2
 131 688 l 1
 263 688 l 1
EndSplineSet
Validated: 1
Position2: "'cpsp' Capital Spacing in Latin lookup 0 subtable" dx=5 dy=0 dh=10 dv=0
EndChar

StartChar: K
Encoding: 75 75 31
Width: 571
Flags: MW
HStem: 0 688<56 188 56 188 430 574 56 407>
VStem: 56 132<0 249 0 362 362 688>
LayerCount: 2
Fore
SplineSet
307 347 m 1
 574 0 l 1
 407 0 l 1
 209 274 l 1
 188 249 l 1
 188 0 l 1
 56 0 l 1
 56 688 l 1
 188 688 l 1
 188 362 l 1
 430 688 l 1
 589 688 l 1
 307 347 l 1
EndSplineSet
Validated: 1
Position2: "'cpsp' Capital Spacing in Latin lookup 0 subtable" dx=5 dy=0 dh=10 dv=0
EndChar

StartChar: L
Encoding: 76 76 32
Width: 504
Flags: MW
HStem: 0 112<198 489 198 489>
VStem: 66 132<112 112 112 688>
LayerCount: 2
Fore
SplineSet
198 112 m 1
 489 112 l 1
 489 0 l 1
 66 0 l 1
 66 688 l 1
 198 688 l 1
 198 112 l 1
EndSplineSet
Validated: 1
Position2: "'cpsp' Capital Spacing in Latin lookup 0 subtable" dx=5 dy=0 dh=10 dv=0
EndChar

StartChar: M
Encoding: 77 77 33
Width: 838
Flags: HMW
HStem: 598 90
VStem: 61 125 652 129
LayerCount: 2
Fore
SplineSet
255 688 m 1
 390 247 l 2
 402 208 413 168 421 119 c 1
 429 168 440 208 452 247 c 2
 587 688 l 1
 774 688 l 1
 788 0 l 1
 654 0 l 1
 650 338 l 2
 649.9 345 649.85 352.33 649.85 359.941 c 0
 649.85 428.44 653.9 519.7 662 598 c 1
 646 498 621 398 600 338 c 2
 488 10 l 1
 350 10 l 1
 235 338 l 2
 214 398 193 478 176 578 c 1
 184.1 500.6 188.15 424.82 188.15 359.408 c 0
 188.15 352.14 188.1 345 188 338 c 2
 184 0 l 1
 54 0 l 1
 68 688 l 1
 255 688 l 1
EndSplineSet
Validated: 524289
Position2: "'cpsp' Capital Spacing in Latin lookup 0 subtable" dx=5 dy=0 dh=10 dv=0
EndChar

StartChar: N
Encoding: 78 78 34
Width: 668
Flags: MW
HStem: 0 688<52 180 52 248 488 616 52 616 52 420>
VStem: 52 128<0 378 0 688> 488 128<310 688>
LayerCount: 2
Fore
SplineSet
616 0 m 1
 420 0 l 1
 245 378 l 2
 217 438 201 478 175 558 c 1
 179 478 180 438 180 378 c 2
 180 0 l 1
 52 0 l 1
 52 688 l 1
 248 688 l 1
 423 310 l 2
 451 250 467 210 493 130 c 1
 489 210 488 250 488 310 c 2
 488 688 l 1
 616 688 l 1
 616 0 l 1
EndSplineSet
Validated: 1
Position2: "'cpsp' Capital Spacing in Latin lookup 0 subtable" dx=5 dy=0 dh=10 dv=0
EndChar

StartChar: Ntilde
Encoding: 209 209 35
Width: 668
Flags: MW
HStem: 750 109<255 262 200 286.5> 751 81<382.5 388 376.5 413>
VStem: 52 128<0 378 0 688> 200 62<750 756.5 750 773 750 803.5> 406 62<853.5 860> 488 128<310 688 0 688>
LayerCount: 2
Fore
SplineSet
468 860 m 1xac
 468 837 l 2
 468 776 435 751 391 751 c 0
 374 751 352 758 328 767 c 0
 307 775 294 778 285 778 c 0
 271 778 262 763 262 750 c 1
 200 750 l 1
 200 773 l 2
 200 834 233 859 277 859 c 0xbc
 296 859 315 852 339 843 c 0
 359 835 372 832 381 832 c 0x6c
 395 832 406 847 406 860 c 1
 468 860 l 1xac
420 0 m 1
 245 378 l 2
 217 438 201 478 175 558 c 1
 179 478 180 438 180 378 c 2
 180 0 l 1
 52 0 l 1
 52 688 l 1
 248 688 l 1
 423 310 l 2
 451 250 467 210 493 130 c 1
 489 210 488 250 488 310 c 2
 488 688 l 1
 616 688 l 1
 616 0 l 1xa4
 420 0 l 1
EndSplineSet
Validated: 1
Position2: "'cpsp' Capital Spacing in Latin lookup 0 subtable" dx=5 dy=0 dh=10 dv=0
EndChar

StartChar: O
Encoding: 79 79 36
Width: 746
Flags: MW
HStem: -14 112<313.5 438.5 313.5 473> 590 112<313.5 438.5>
VStem: 38 142<269.5 418.5 269.5 452.5> 572 142<269.5 418.5>
LayerCount: 2
Fore
SplineSet
376 702 m 0
 570 702 714 561 714 344 c 0
 714 127 570 -14 376 -14 c 0
 182 -14 38 127 38 344 c 0
 38 561 182 702 376 702 c 0
376 590 m 0
 251 590 180 493 180 344 c 0
 180 195 251 98 376 98 c 0
 501 98 572 195 572 344 c 0
 572 493 501 590 376 590 c 0
EndSplineSet
Validated: 1
Position2: "'cpsp' Capital Spacing in Latin lookup 0 subtable" dx=5 dy=0 dh=10 dv=0
EndChar

StartChar: Oacute
Encoding: 211 211 37
Width: 746
Flags: MW
HStem: -14 112<313.5 438.5 313.5 473> 590 112<313.5 438.5> 738.5 133.5
VStem: 38 142<269.5 418.5 269.5 452.5> 572 142<269.5 418.5>
LayerCount: 2
Fore
SplineSet
421 742 m 1
 324 735 l 1
 393 868 l 1
 533 876 l 1
 421 742 l 1
376 702 m 0
 570 702 714 561 714 344 c 0
 714 127 570 -14 376 -14 c 0
 182 -14 38 127 38 344 c 0
 38 561 182 702 376 702 c 0
376 590 m 0
 251 590 180 493 180 344 c 0
 180 195 251 98 376 98 c 0
 501 98 572 195 572 344 c 0
 572 493 501 590 376 590 c 0
EndSplineSet
Validated: 1
Position2: "'cpsp' Capital Spacing in Latin lookup 0 subtable" dx=5 dy=0 dh=10 dv=0
EndChar

StartChar: Ocircumflex
Encoding: 212 212 38
Width: 746
Flags: MW
HStem: -14 112<313.5 438.5 313.5 473> 590 112<313.5 438.5> 736 135<323 342 244 430 410 430 323 509 410 410>
VStem: 38 142<269.5 418.5 269.5 452.5> 572 142<269.5 418.5>
LayerCount: 2
Fore
SplineSet
509 736 m 1
 410 736 l 1
 376 814 l 1
 342 736 l 1
 244 736 l 1
 323 871 l 1
 430 871 l 1
 509 736 l 1
376 702 m 0
 570 702 714 561 714 344 c 0
 714 127 570 -14 376 -14 c 0
 182 -14 38 127 38 344 c 0
 38 561 182 702 376 702 c 0
376 590 m 0
 251 590 180 493 180 344 c 0
 180 195 251 98 376 98 c 0
 501 98 572 195 572 344 c 0
 572 493 501 590 376 590 c 0
EndSplineSet
Validated: 1
Position2: "'cpsp' Capital Spacing in Latin lookup 0 subtable" dx=5 dy=0 dh=10 dv=0
EndChar

StartChar: Odieresis
Encoding: 214 214 39
Width: 746
Flags: MW
HStem: -14 112<313.5 438.5 313.5 473> 590 112<313.5 438.5> 731 126<263.5 298.5 453.5 488.5>
VStem: 38 142<269.5 418.5 269.5 452.5> 218 126<776.5 811.5> 408 126<776.5 811.5> 572 142<269.5 418.5>
LayerCount: 2
Fore
SplineSet
281 857 m 0
 316 857 344 829 344 794 c 0
 344 759 316 731 281 731 c 0
 246 731 218 759 218 794 c 0
 218 829 246 857 281 857 c 0
471 857 m 0
 506 857 534 829 534 794 c 0
 534 759 506 731 471 731 c 0
 436 731 408 759 408 794 c 0
 408 829 436 857 471 857 c 0
376 702 m 0xd2
 570 702 714 561 714 344 c 0
 714 127 570 -14 376 -14 c 0
 182 -14 38 127 38 344 c 0
 38 561 182 702 376 702 c 0xd2
376 590 m 0
 251 590 180 493 180 344 c 0
 180 195 251 98 376 98 c 0
 501 98 572 195 572 344 c 0
 572 493 501 590 376 590 c 0
EndSplineSet
Validated: 1
Position2: "'cpsp' Capital Spacing in Latin lookup 0 subtable" dx=5 dy=0 dh=10 dv=0
EndChar

StartChar: Ograve
Encoding: 210 210 40
Width: 746
Flags: MW
HStem: -14 112<313.5 438.5 313.5 473> 590 112<313.5 438.5> 738.5 133.5
VStem: 38 142<269.5 418.5 269.5 452.5> 572 142<269.5 418.5>
LayerCount: 2
Fore
SplineSet
358 868 m 1
 427 735 l 1
 330 742 l 1
 218 876 l 1
 358 868 l 1
376 702 m 0
 570 702 714 561 714 344 c 0
 714 127 570 -14 376 -14 c 0
 182 -14 38 127 38 344 c 0
 38 561 182 702 376 702 c 0
376 590 m 0
 251 590 180 493 180 344 c 0
 180 195 251 98 376 98 c 0
 501 98 572 195 572 344 c 0
 572 493 501 590 376 590 c 0
EndSplineSet
Validated: 1
Position2: "'cpsp' Capital Spacing in Latin lookup 0 subtable" dx=5 dy=0 dh=10 dv=0
EndChar

StartChar: Oslash
Encoding: 216 216 41
Width: 747
Flags: MW
HStem: -14 112<353 439.5 353 474> 590 112<314.5 397.5>
VStem: 39 142<324 418.5 324 452.5> 573 142<269.5 368>
LayerCount: 2
Fore
SplineSet
692 629 m 1
 644 575 l 1
 689 515 715 436 715 344 c 0
 715 127 571 -14 377 -14 c 0
 300 -14 232 8 177 48 c 1
 120 -16 l 1
 38 59 l 1
 99 128 l 1
 61 186 39 259 39 344 c 0
 39 561 183 702 377 702 c 0
 447 702 510 684 562 650 c 1
 610 704 l 1
 692 629 l 1
196 237 m 1
 482 560 l 1
 453 579 418 590 377 590 c 0
 252 590 181 493 181 344 c 0
 181 304 186 268 196 237 c 1
551 470 m 1
 257 139 l 1
 288 112 329 98 377 98 c 0
 502 98 573 195 573 344 c 0
 573 392 566 435 551 470 c 1
EndSplineSet
Validated: 1
Position2: "'cpsp' Capital Spacing in Latin lookup 0 subtable" dx=5 dy=0 dh=10 dv=0
EndChar

StartChar: Otilde
Encoding: 213 213 42
Width: 746
Flags: MW
HStem: -14 112<313.5 438.5 313.5 473> 590 112<313.5 438.5> 750 109<297 304 242 328.5> 751 81<424.5 430 418.5 455>
VStem: 38 142<269.5 418.5 269.5 452.5> 242 62<750 756.5 750 773 750 803.5> 448 62<853.5 860> 572 142<269.5 418.5>
LayerCount: 2
Fore
SplineSet
510 860 m 1xeb
 510 837 l 2
 510 776 477 751 433 751 c 0
 416 751 394 758 370 767 c 0
 349 775 336 778 327 778 c 0
 313 778 304 763 304 750 c 1
 242 750 l 1
 242 773 l 2
 242 834 275 859 319 859 c 0xef
 338 859 357 852 381 843 c 0
 401 835 414 832 423 832 c 0xdb
 437 832 448 847 448 860 c 1
 510 860 l 1xeb
376 702 m 0
 570 702 714 561 714 344 c 0
 714 127 570 -14 376 -14 c 0
 182 -14 38 127 38 344 c 0
 38 561 182 702 376 702 c 0
376 590 m 0
 251 590 180 493 180 344 c 0
 180 195 251 98 376 98 c 0
 501 98 572 195 572 344 c 0
 572 493 501 590 376 590 c 0
EndSplineSet
Validated: 1
Position2: "'cpsp' Capital Spacing in Latin lookup 0 subtable" dx=5 dy=0 dh=10 dv=0
EndChar

StartChar: OE
Encoding: 338 338 43
Width: 1021
Flags: MW
HStem: -14 112<313 412> 0 112<704 992 704 992> 291 112<704 956 704 956> 572 112<704 988 704 704> 590 112<313 412 266.5 439>
VStem: 38 142<268.5 419.5 268.5 452.5> 572 132<0 291 89 291 268.5 291 403 419.5>
LayerCount: 2
Fore
SplineSet
992 112 m 1x76
 992 0 l 1
 572 0 l 1x76
 572 89 l 1
 529 24 462 -14 362 -14 c 0
 171 -14 38 127 38 344 c 0
 38 561 171 702 362 702 c 0xae
 462 702 529 664 572 599 c 1
 572 684 l 1
 988 684 l 1
 988 572 l 1
 704 572 l 1
 704 403 l 1
 956 403 l 1
 956 291 l 1
 704 291 l 1
 704 112 l 1
 992 112 l 1x76
376 98 m 0xae
 502 98 572 193 572 344 c 0
 572 495 502 590 376 590 c 0
 250 590 180 495 180 344 c 0
 180 193 250 98 376 98 c 0xae
EndSplineSet
Validated: 1
Position2: "'cpsp' Capital Spacing in Latin lookup 0 subtable" dx=5 dy=0 dh=10 dv=0
EndChar

StartChar: P
Encoding: 80 80 44
Width: 506
Flags: MW
HStem: 257 110<227 269.5 226 308> 586 112<231 282>
VStem: 56 132<0 260 0 370 370 583> 362 142<441 506>
LayerCount: 2
Fore
SplineSet
56 0 m 1
 56 683 l 1
 114 694 182 698 236 698 c 0
 430 698 504 599 504 483 c 0
 504 339 381 257 235 257 c 0
 219 257 205 258 188 260 c 1
 188 0 l 1
 56 0 l 1
188 583 m 1
 188 370 l 1
 203 368 220 367 232 367 c 0
 307 367 362 404 362 478 c 0
 362 534 323 586 241 586 c 0
 221 586 206 585 188 583 c 1
EndSplineSet
Validated: 1
Position2: "'cpsp' Capital Spacing in Latin lookup 0 subtable" dx=5 dy=0 dh=10 dv=0
EndChar

StartChar: Q
Encoding: 81 81 45
Width: 740
Flags: MW
HStem: -14 110<306.5 369> 590 112<307.5 432.5>
VStem: 32 142<269.5 418.5 269.5 452.5> 566 142<269.5 418.5>
LayerCount: 2
Fore
SplineSet
524 -204 m 1
 369 -14 l 1
 176 -14 32 127 32 344 c 0
 32 561 176 702 370 702 c 0
 564 702 708 561 708 344 c 0
 708 182 622 60 495 13 c 1
 630 -145 l 1
 524 -204 l 1
174 344 m 0
 174 195 244 96 369 96 c 0
 494 96 566 195 566 344 c 0
 566 493 495 590 370 590 c 0
 245 590 174 493 174 344 c 0
EndSplineSet
Validated: 1
Position2: "'cpsp' Capital Spacing in Latin lookup 0 subtable" dx=5 dy=0 dh=10 dv=0
EndChar

StartChar: R
Encoding: 82 82 46
Width: 538
Flags: MW
HStem: 267 107<188 223 223 235 188 223> 586 112<239 287.5>
VStem: 56 132<0 267 374 583> 361 142<460 513.5>
LayerCount: 2
Fore
SplineSet
56 0 m 1
 56 686 l 1
 114 694 192 698 246 698 c 0
 417 698 503 622 503 506 c 0
 503 414 443 360 358 343 c 1
 421 334 450 267 466 189 c 0
 479 128 502 45 519 0 c 1
 375 0 l 1
 359 54 342 131 332 181 c 0
 322 231 308 267 235 267 c 2
 188 267 l 1
 188 0 l 1
 56 0 l 1
188 374 m 1
 223 374 l 2
 312 374 361 422 361 484 c 0
 361 543 327 586 248 586 c 0
 230 586 210 585 188 583 c 1
 188 374 l 1
EndSplineSet
Validated: 1
Position2: "'cpsp' Capital Spacing in Latin lookup 0 subtable" dx=5 dy=0 dh=10 dv=0
EndChar

StartChar: S
Encoding: 83 83 47
Width: 511
Flags: MW
HStem: -14 112<172.5 234.5 172.5 269> 590 112<274 333>
VStem: 53 139<474 529 474 567.5> 329 142<161 216>
LayerCount: 2
Fore
SplineSet
36 17 m 1
 46 133 l 1
 91 110 151 98 194 98 c 0
 275 98 329 133 329 189 c 0
 329 243 288 275 210 300 c 0
 99 335 53 397 53 495 c 0
 53 640 179 702 312 702 c 0
 372 702 427 687 457 669 c 1
 447 550 l 1
 410 574 356 590 310 590 c 0
 238 590 192 556 192 502 c 0
 192 446 226 415 313 388 c 0
 424 353 471 289 471 203 c 0
 471 60 347 -14 191 -14 c 0
 145 -14 79 -4 36 17 c 1
EndSplineSet
Validated: 1
Position2: "'cpsp' Capital Spacing in Latin lookup 0 subtable" dx=5 dy=0 dh=10 dv=0
EndChar

StartChar: Scedilla
Encoding: 350 350 48
Width: 511
Flags: MW
HStem: -201 66<204 228.5 204 249.5> -14 112<172.5 191 191 212> 590 112<274 333>
VStem: 53 139<474 529 474 567.5> 257 84<-116 -99> 329 142<161 216>
LayerCount: 2
Fore
SplineSet
457 669 m 1xf4
 447 550 l 1
 410 574 356 590 310 590 c 0
 238 590 192 556 192 502 c 0
 192 446 226 415 313 388 c 0
 424 353 471 289 471 203 c 0xf4
 471 92 396 22 289 -3 c 1
 271 -34 l 1
 319 -39 341 -70 341 -109 c 0
 341 -171 286 -201 213 -201 c 0
 188 -201 159 -196 137 -184 c 1
 164 -126 l 1
 180 -133 194 -135 214 -135 c 0
 243 -135 257 -123 257 -109 c 0
 257 -89 238 -79 182 -79 c 1
 212 -14 l 1
 191 -14 l 2xf8
 145 -14 79 -4 36 17 c 1
 46 133 l 1
 91 110 151 98 194 98 c 0
 275 98 329 133 329 189 c 0
 329 243 288 275 210 300 c 0
 99 335 53 397 53 495 c 0
 53 640 179 702 312 702 c 0
 372 702 427 687 457 669 c 1xf4
EndSplineSet
Validated: 1
EndChar

StartChar: T
Encoding: 84 84 49
Width: 557
Flags: MW
HStem: 572 112<4 212 4 552 344 552 344 344>
VStem: 212 132<0 572 0 572>
LayerCount: 2
Fore
SplineSet
552 572 m 1
 344 572 l 1
 344 0 l 1
 212 0 l 1
 212 572 l 1
 4 572 l 1
 4 684 l 1
 552 684 l 1
 552 572 l 1
EndSplineSet
Validated: 1
Position2: "'cpsp' Capital Spacing in Latin lookup 0 subtable" dx=5 dy=0 dh=10 dv=0
EndChar

StartChar: U
Encoding: 85 85 50
Width: 649
Flags: MW
HStem: -16 118<282.5 371.5 282.5 401.5>
VStem: 52 132<237 271 271 688> 469 132<257 267 267 688>
LayerCount: 2
Fore
SplineSet
601 688 m 1
 601 267 l 2
 601 74 481 -16 322 -16 c 0
 165 -16 52 74 52 237 c 2
 52 688 l 1
 184 688 l 1
 184 271 l 2
 184 158 237 102 328 102 c 0
 415 102 469 153 469 257 c 2
 469 688 l 1
 601 688 l 1
EndSplineSet
Validated: 1
Position2: "'cpsp' Capital Spacing in Latin lookup 0 subtable" dx=5 dy=0 dh=10 dv=0
EndChar

StartChar: Uacute
Encoding: 218 218 51
Width: 649
Flags: MW
HStem: -16 118<282.5 371.5 282.5 401.5> 736.5 133.5
VStem: 52 132<237 271 271 688> 469 132<257 267 267 688>
LayerCount: 2
Fore
SplineSet
371 740 m 1
 274 733 l 1
 343 866 l 1
 483 874 l 1
 371 740 l 1
601 688 m 1
 601 267 l 2
 601 74 481 -16 322 -16 c 0
 165 -16 52 74 52 237 c 2
 52 688 l 1
 184 688 l 1
 184 271 l 2
 184 158 237 102 328 102 c 0
 415 102 469 153 469 257 c 2
 469 688 l 1
 601 688 l 1
EndSplineSet
Validated: 1
Position2: "'cpsp' Capital Spacing in Latin lookup 0 subtable" dx=5 dy=0 dh=10 dv=0
EndChar

StartChar: Ucircumflex
Encoding: 219 219 52
Width: 649
Flags: MW
HStem: -16 118<282.5 371.5 282.5 401.5> 734 135<273 292 194 380 360 380 273 459 360 360>
VStem: 52 132<237 271 271 688> 469 132<257 267 267 688>
LayerCount: 2
Fore
SplineSet
459 734 m 1
 360 734 l 1
 326 812 l 1
 292 734 l 1
 194 734 l 1
 273 869 l 1
 380 869 l 1
 459 734 l 1
601 688 m 1
 601 267 l 2
 601 74 481 -16 322 -16 c 0
 165 -16 52 74 52 237 c 2
 52 688 l 1
 184 688 l 1
 184 271 l 2
 184 158 237 102 328 102 c 0
 415 102 469 153 469 257 c 2
 469 688 l 1
 601 688 l 1
EndSplineSet
Validated: 1
Position2: "'cpsp' Capital Spacing in Latin lookup 0 subtable" dx=5 dy=0 dh=10 dv=0
EndChar

StartChar: Udieresis
Encoding: 220 220 53
Width: 649
Flags: MW
HStem: -16 118<282.5 371.5 282.5 401.5> 729 126<213.5 248.5 403.5 438.5>
VStem: 52 132<237 271 271 688> 168 126<774.5 809.5> 358 126<774.5 809.5> 469 132<257 267 267 688>
LayerCount: 2
Fore
SplineSet
231 855 m 0xd8
 266 855 294 827 294 792 c 0
 294 757 266 729 231 729 c 0
 196 729 168 757 168 792 c 0
 168 827 196 855 231 855 c 0xd8
421 855 m 0
 456 855 484 827 484 792 c 0
 484 757 456 729 421 729 c 0
 386 729 358 757 358 792 c 0
 358 827 386 855 421 855 c 0
601 688 m 1xe4
 601 267 l 2
 601 74 481 -16 322 -16 c 0
 165 -16 52 74 52 237 c 2
 52 688 l 1
 184 688 l 1
 184 271 l 2
 184 158 237 102 328 102 c 0
 415 102 469 153 469 257 c 2
 469 688 l 1
 601 688 l 1xe4
EndSplineSet
Validated: 1
Position2: "'cpsp' Capital Spacing in Latin lookup 0 subtable" dx=5 dy=0 dh=10 dv=0
EndChar

StartChar: Ugrave
Encoding: 217 217 54
Width: 649
Flags: MW
HStem: -16 118<282.5 371.5 282.5 401.5> 736.5 133.5
VStem: 52 132<237 271 271 688> 469 132<257 267 267 688>
LayerCount: 2
Fore
SplineSet
308 866 m 1
 377 733 l 1
 280 740 l 1
 168 874 l 1
 308 866 l 1
601 688 m 1
 601 267 l 2
 601 74 481 -16 322 -16 c 0
 165 -16 52 74 52 237 c 2
 52 688 l 1
 184 688 l 1
 184 271 l 2
 184 158 237 102 328 102 c 0
 415 102 469 153 469 257 c 2
 469 688 l 1
 601 688 l 1
EndSplineSet
Validated: 1
Position2: "'cpsp' Capital Spacing in Latin lookup 0 subtable" dx=5 dy=0 dh=10 dv=0
EndChar

StartChar: V
Encoding: 86 86 55
Width: 610
Flags: MW
HStem: 0 688<-11 380 -11 227>
VStem: -11 629<688 688>
LayerCount: 2
Fore
SplineSet
380 0 m 1
 227 0 l 1
 -11 688 l 1
 134 688 l 1
 306 120 l 1
 477 688 l 1
 618 688 l 1
 380 0 l 1
EndSplineSet
Validated: 1
Position2: "'cpsp' Capital Spacing in Latin lookup 0 subtable" dx=5 dy=0 dh=10 dv=0
EndChar

StartChar: W
Encoding: 87 87 56
Width: 934
Flags: MW
HStem: 0 688<-8 338 -8 182 -8 749 -8 593>
VStem: -8 950<688 688>
LayerCount: 2
Fore
SplineSet
138 688 m 1
 230 288 l 2
 242 234 255 171 262 117 c 1
 271 171 284 234 298 288 c 2
 399 688 l 1
 543 688 l 1
 639 288 l 2
 652 234 665 171 674 117 c 1
 682 171 694 234 707 288 c 2
 803 688 l 1
 942 688 l 1
 749 0 l 1
 593 0 l 1
 510 329 l 2
 494 394 477 466 465 531 c 1
 452 464 437 396 420 329 c 2
 338 0 l 1
 182 0 l 1
 -8 688 l 1
 138 688 l 1
EndSplineSet
Validated: 1
Position2: "'cpsp' Capital Spacing in Latin lookup 0 subtable" dx=5 dy=0 dh=10 dv=0
EndChar

StartChar: Wacute
Encoding: 7810 7810 57
Width: 934
Flags: MW
HStem: 736.5 133.5
VStem: -8 950<688 688>
LayerCount: 2
Fore
SplineSet
516 740 m 1
 419 733 l 1
 488 866 l 1
 628 874 l 1
 516 740 l 1
138 688 m 1
 230 288 l 2
 242 234 255 171 262 117 c 1
 271 171 284 234 298 288 c 2
 399 688 l 1
 543 688 l 1
 639 288 l 2
 652 234 665 171 674 117 c 1
 682 171 694 234 707 288 c 2
 803 688 l 1
 942 688 l 1
 749 0 l 1
 593 0 l 1
 510 329 l 2
 494 394 477 466 465 531 c 1
 452 464 437 396 420 329 c 2
 338 0 l 1
 182 0 l 1
 -8 688 l 1
 138 688 l 1
EndSplineSet
Validated: 1
Position2: "'cpsp' Capital Spacing in Latin lookup 0 subtable" dx=5 dy=0 dh=10 dv=0
EndChar

StartChar: Wcircumflex
Encoding: 372 372 58
Width: 934
Flags: MW
HStem: 734 135<418 437 339 525 505 525 418 604 505 505>
VStem: -8 950<688 688>
LayerCount: 2
Fore
SplineSet
604 734 m 1
 505 734 l 1
 471 812 l 1
 437 734 l 1
 339 734 l 1
 418 869 l 1
 525 869 l 1
 604 734 l 1
138 688 m 1
 230 288 l 2
 242 234 255 171 262 117 c 1
 271 171 284 234 298 288 c 2
 399 688 l 1
 543 688 l 1
 639 288 l 2
 652 234 665 171 674 117 c 1
 682 171 694 234 707 288 c 2
 803 688 l 1
 942 688 l 1
 749 0 l 1
 593 0 l 1
 510 329 l 2
 494 394 477 466 465 531 c 1
 452 464 437 396 420 329 c 2
 338 0 l 1
 182 0 l 1
 -8 688 l 1
 138 688 l 1
EndSplineSet
Validated: 1
Position2: "'cpsp' Capital Spacing in Latin lookup 0 subtable" dx=5 dy=0 dh=10 dv=0
EndChar

StartChar: Wdieresis
Encoding: 7812 7812 59
Width: 934
Flags: MW
HStem: 729 126<358.5 393.5 548.5 583.5>
VStem: 313 126<774.5 809.5> 503 126<774.5 809.5>
LayerCount: 2
Fore
SplineSet
376 855 m 0
 411 855 439 827 439 792 c 0
 439 757 411 729 376 729 c 0
 341 729 313 757 313 792 c 0
 313 827 341 855 376 855 c 0
566 855 m 0
 601 855 629 827 629 792 c 0
 629 757 601 729 566 729 c 0
 531 729 503 757 503 792 c 0
 503 827 531 855 566 855 c 0
138 688 m 1
 230 288 l 2
 242 234 255 171 262 117 c 1
 271 171 284 234 298 288 c 2
 399 688 l 1
 543 688 l 1
 639 288 l 2
 652 234 665 171 674 117 c 1
 682 171 694 234 707 288 c 2
 803 688 l 1
 942 688 l 1
 749 0 l 1
 593 0 l 1
 510 329 l 2
 494 394 477 466 465 531 c 1
 452 464 437 396 420 329 c 2
 338 0 l 1
 182 0 l 1
 -8 688 l 1
 138 688 l 1
EndSplineSet
Validated: 1
Position2: "'cpsp' Capital Spacing in Latin lookup 0 subtable" dx=5 dy=0 dh=10 dv=0
EndChar

StartChar: Wgrave
Encoding: 7808 7808 60
Width: 934
Flags: MW
HStem: 736.5 133.5
VStem: -8 950<688 688>
LayerCount: 2
Fore
SplineSet
453 866 m 1
 522 733 l 1
 425 740 l 1
 313 874 l 1
 453 866 l 1
138 688 m 1
 230 288 l 2
 242 234 255 171 262 117 c 1
 271 171 284 234 298 288 c 2
 399 688 l 1
 543 688 l 1
 639 288 l 2
 652 234 665 171 674 117 c 1
 682 171 694 234 707 288 c 2
 803 688 l 1
 942 688 l 1
 749 0 l 1
 593 0 l 1
 510 329 l 2
 494 394 477 466 465 531 c 1
 452 464 437 396 420 329 c 2
 338 0 l 1
 182 0 l 1
 -8 688 l 1
 138 688 l 1
EndSplineSet
Validated: 1
Position2: "'cpsp' Capital Spacing in Latin lookup 0 subtable" dx=5 dy=0 dh=10 dv=0
EndChar

StartChar: X
Encoding: 88 88 61
Width: 598
Flags: MW
HStem: 0 688<5 140 -11 163 438 582 5 422>
VStem: -11 602
LayerCount: 2
Fore
SplineSet
371 340 m 1
 582 0 l 1
 422 0 l 1
 283 249 l 1
 140 0 l 1
 -11 0 l 1
 208 349 l 1
 5 688 l 1
 163 688 l 1
 293 438 l 1
 438 688 l 1
 591 688 l 1
 371 340 l 1
EndSplineSet
Validated: 1
Position2: "'cpsp' Capital Spacing in Latin lookup 0 subtable" dx=5 dy=0 dh=10 dv=0
EndChar

StartChar: Y
Encoding: 89 89 62
Width: 577
Flags: MW
HStem: 0 688<-4 355 -4 223>
VStem: 223 132<0 292 0 292>
LayerCount: 2
Fore
SplineSet
355 292 m 1
 355 0 l 1
 223 0 l 1
 223 292 l 1
 -4 688 l 1
 159 688 l 1
 293 408 l 1
 430 688 l 1
 582 688 l 1
 355 292 l 1
EndSplineSet
Validated: 1
Position2: "'cpsp' Capital Spacing in Latin lookup 0 subtable" dx=5 dy=0 dh=10 dv=0
EndChar

StartChar: Yacute
Encoding: 221 221 63
Width: 577
Flags: MW
HStem: 736.5 133.5
VStem: 223 132<0 292>
LayerCount: 2
Fore
SplineSet
334 740 m 1
 237 733 l 1
 306 866 l 1
 446 874 l 1
 334 740 l 1
355 0 m 1
 223 0 l 1
 223 292 l 1
 -4 688 l 1
 159 688 l 1
 293 408 l 1
 430 688 l 1
 582 688 l 1
 355 292 l 1
 355 0 l 1
EndSplineSet
Validated: 1
Position2: "'cpsp' Capital Spacing in Latin lookup 0 subtable" dx=5 dy=0 dh=10 dv=0
EndChar

StartChar: Ycircumflex
Encoding: 374 374 64
Width: 577
Flags: MW
HStem: 734 135<236 255 157 343 323 343 236 422 323 323>
VStem: 223 132<0 292>
LayerCount: 2
Fore
SplineSet
422 734 m 1
 323 734 l 1
 289 812 l 1
 255 734 l 1
 157 734 l 1
 236 869 l 1
 343 869 l 1
 422 734 l 1
355 0 m 1
 223 0 l 1
 223 292 l 1
 -4 688 l 1
 159 688 l 1
 293 408 l 1
 430 688 l 1
 582 688 l 1
 355 292 l 1
 355 0 l 1
EndSplineSet
Validated: 1
Position2: "'cpsp' Capital Spacing in Latin lookup 0 subtable" dx=5 dy=0 dh=10 dv=0
EndChar

StartChar: Ydieresis
Encoding: 376 376 65
Width: 577
Flags: MW
HStem: 729 126<176.5 211.5 366.5 401.5>
VStem: 131 126<774.5 809.5> 223 132<0 292> 321 126<774.5 809.5>
LayerCount: 2
Fore
SplineSet
194 855 m 0xd0
 229 855 257 827 257 792 c 0
 257 757 229 729 194 729 c 0
 159 729 131 757 131 792 c 0
 131 827 159 855 194 855 c 0xd0
384 855 m 0
 419 855 447 827 447 792 c 0
 447 757 419 729 384 729 c 0
 349 729 321 757 321 792 c 0
 321 827 349 855 384 855 c 0
355 0 m 1xa0
 223 0 l 1
 223 292 l 1
 -4 688 l 1
 159 688 l 1
 293 408 l 1
 430 688 l 1
 582 688 l 1
 355 292 l 1
 355 0 l 1xa0
EndSplineSet
Validated: 1
Position2: "'cpsp' Capital Spacing in Latin lookup 0 subtable" dx=5 dy=0 dh=10 dv=0
EndChar

StartChar: Ygrave
Encoding: 7922 7922 66
Width: 577
Flags: MW
HStem: 736.5 133.5
VStem: 223 132<0 292>
LayerCount: 2
Fore
SplineSet
271 866 m 1
 340 733 l 1
 243 740 l 1
 131 874 l 1
 271 866 l 1
355 0 m 1
 223 0 l 1
 223 292 l 1
 -4 688 l 1
 159 688 l 1
 293 408 l 1
 430 688 l 1
 582 688 l 1
 355 292 l 1
 355 0 l 1
EndSplineSet
Validated: 1
Position2: "'cpsp' Capital Spacing in Latin lookup 0 subtable" dx=5 dy=0 dh=10 dv=0
EndChar

StartChar: Z
Encoding: 90 90 67
Width: 564
Flags: MW
HStem: 0 112<197 546 197 546> 572 112<57 374 57 541>
VStem: 31 515<0 105 105 105>
LayerCount: 2
Fore
SplineSet
541 576 m 1
 197 112 l 1
 546 112 l 1
 546 0 l 1
 31 0 l 1
 31 105 l 1
 374 572 l 1
 57 572 l 1
 57 684 l 1
 541 684 l 1
 541 576 l 1
EndSplineSet
Validated: 1
Position2: "'cpsp' Capital Spacing in Latin lookup 0 subtable" dx=5 dy=0 dh=10 dv=0
EndChar

StartChar: a
Encoding: 97 97 68
Width: 482
Flags: MW
HStem: -10 95<208 210> 211 81<231 261.5 189 265.5> 378 114<200 239.5>
VStem: 33 133<124.5 162.5 124.5 183.5> 298 132<182 209 209 209 290 301 301 311 0 324.5>
LayerCount: 2
Fore
SplineSet
74 341 m 1
 66 453 l 1
 107 478 172 492 228 492 c 0
 372 492 430 421 430 311 c 2
 430 0 l 1
 319 0 l 1
 309 61 l 1
 281 9 242 -10 178 -10 c 0
 91 -10 33 43 33 132 c 0
 33 235 126 292 252 292 c 0
 271 292 286 291 298 290 c 1
 298 301 l 2
 298 348 271 378 208 378 c 0
 169 378 113 366 74 341 c 1
298 182 m 2
 298 209 l 1
 286 210 272 211 259 211 c 0
 203 211 166 184 166 141 c 0
 166 108 190 85 226 85 c 0
 265 85 298 126 298 182 c 2
EndSplineSet
Validated: 1
EndChar

StartChar: aacute
Encoding: 225 225 69
Width: 482
Flags: MW
HStem: -10 95<208 210> 211 81<231 261.5 189 265.5> 378 114<200 239.5> 536.5 133.5
VStem: 33 133<124.5 162.5 124.5 183.5> 298 132<182 209 209 209 290 301 301 311 0 324.5>
LayerCount: 2
Fore
SplineSet
297 540 m 1
 200 533 l 1
 269 666 l 1
 409 674 l 1
 297 540 l 1
74 341 m 1
 66 453 l 1
 107 478 172 492 228 492 c 0
 372 492 430 421 430 311 c 2
 430 0 l 1
 319 0 l 1
 309 61 l 1
 281 9 242 -10 178 -10 c 0
 91 -10 33 43 33 132 c 0
 33 235 126 292 252 292 c 0
 271 292 286 291 298 290 c 1
 298 301 l 2
 298 348 271 378 208 378 c 0
 169 378 113 366 74 341 c 1
298 182 m 2
 298 209 l 1
 286 210 272 211 259 211 c 0
 203 211 166 184 166 141 c 0
 166 108 190 85 226 85 c 0
 265 85 298 126 298 182 c 2
EndSplineSet
Validated: 1
EndChar

StartChar: abreve
Encoding: 259 259 70
Width: 482
Flags: MW
HStem: -10 95<208 210> 211 81<231 261.5 189 265.5> 378 114<200 239.5> 535 69<238.5 265.5 238.5 290.5>
VStem: 33 133<124.5 162.5 124.5 183.5> 131 73<622.5 663> 298 132<182 209 209 209 290 301 301 311 0 324.5> 300 73<622.5 663>
LayerCount: 2
Fore
SplineSet
131 663 m 1xf6
 204 663 l 1
 206 624 225 604 252 604 c 0
 279 604 298 624 300 663 c 1
 373 663 l 1xf5
 373 582 329 535 252 535 c 0
 174 535 131 582 131 663 c 1xf6
74 341 m 1
 66 453 l 1
 107 478 172 492 228 492 c 0
 372 492 430 421 430 311 c 2
 430 0 l 1
 319 0 l 1
 309 61 l 1
 281 9 242 -10 178 -10 c 0
 91 -10 33 43 33 132 c 0
 33 235 126 292 252 292 c 0
 271 292 286 291 298 290 c 1
 298 301 l 2
 298 348 271 378 208 378 c 0xfa
 169 378 113 366 74 341 c 1
298 182 m 2
 298 209 l 1
 286 210 272 211 259 211 c 0
 203 211 166 184 166 141 c 0
 166 108 190 85 226 85 c 0
 265 85 298 126 298 182 c 2
EndSplineSet
Validated: 1
EndChar

StartChar: acircumflex
Encoding: 226 226 71
Width: 482
Flags: MW
HStem: -10 95<208 210> 211 81<231 261.5 189 265.5> 378 114<200 239.5> 534 135<199 218 120 306 286 306 199 385 286 286>
VStem: 33 133<124.5 162.5 124.5 183.5> 298 132<182 209 209 209 290 301 301 311 0 324.5>
LayerCount: 2
Fore
SplineSet
385 534 m 5
 286 534 l 5
 252 612 l 5
 218 534 l 5
 120 534 l 5
 199 669 l 5
 306 669 l 5
 385 534 l 5
74 341 m 1
 66 453 l 1
 107 478 172 492 228 492 c 0
 372 492 430 421 430 311 c 2
 430 0 l 1
 319 0 l 1
 309 61 l 1
 281 9 242 -10 178 -10 c 0
 91 -10 33 43 33 132 c 0
 33 235 126 292 252 292 c 0
 271 292 286 291 298 290 c 1
 298 301 l 2
 298 348 271 378 208 378 c 0
 169 378 113 366 74 341 c 1
298 182 m 2
 298 209 l 1
 286 210 272 211 259 211 c 0
 203 211 166 184 166 141 c 0
 166 108 190 85 226 85 c 0
 265 85 298 126 298 182 c 2
EndSplineSet
Validated: 1
EndChar

StartChar: adieresis
Encoding: 228 228 72
Width: 482
Flags: MW
HStem: -10 95<208 210> 211 81<231 261.5 189 265.5> 378 114<200 239.5> 529 126<139.5 174.5 329.5 364.5>
VStem: 33 133<124.5 162.5 124.5 183.5> 94 126<574.5 609.5> 284 126<574.5 609.5> 298 132<182 209 209 209 290 301 301 311 0 324.5>
LayerCount: 2
Fore
SplineSet
157 655 m 0xf5
 192 655 220 627 220 592 c 0
 220 557 192 529 157 529 c 0
 122 529 94 557 94 592 c 0
 94 627 122 655 157 655 c 0xf5
347 655 m 0xf6
 382 655 410 627 410 592 c 0
 410 557 382 529 347 529 c 0
 312 529 284 557 284 592 c 0
 284 627 312 655 347 655 c 0xf6
74 341 m 1
 66 453 l 1
 107 478 172 492 228 492 c 0
 372 492 430 421 430 311 c 2
 430 0 l 1
 319 0 l 1
 309 61 l 1
 281 9 242 -10 178 -10 c 0
 91 -10 33 43 33 132 c 0
 33 235 126 292 252 292 c 0
 271 292 286 291 298 290 c 1
 298 301 l 2
 298 348 271 378 208 378 c 0xf9
 169 378 113 366 74 341 c 1
298 182 m 2
 298 209 l 1
 286 210 272 211 259 211 c 0
 203 211 166 184 166 141 c 0
 166 108 190 85 226 85 c 0
 265 85 298 126 298 182 c 2
EndSplineSet
Validated: 1
EndChar

StartChar: agrave
Encoding: 224 224 73
Width: 482
Flags: MW
HStem: -10 95<208 210> 211 81<231 261.5 189 265.5> 378 114<200 239.5> 536.5 133.5
VStem: 33 133<124.5 162.5 124.5 183.5> 298 132<182 209 209 209 290 301 301 311 0 324.5>
LayerCount: 2
Fore
SplineSet
234 666 m 1
 303 533 l 1
 206 540 l 1
 94 674 l 1
 234 666 l 1
74 341 m 1
 66 453 l 1
 107 478 172 492 228 492 c 0
 372 492 430 421 430 311 c 2
 430 0 l 1
 319 0 l 1
 309 61 l 1
 281 9 242 -10 178 -10 c 0
 91 -10 33 43 33 132 c 0
 33 235 126 292 252 292 c 0
 271 292 286 291 298 290 c 1
 298 301 l 2
 298 348 271 378 208 378 c 0
 169 378 113 366 74 341 c 1
298 182 m 2
 298 209 l 1
 286 210 272 211 259 211 c 0
 203 211 166 184 166 141 c 0
 166 108 190 85 226 85 c 0
 265 85 298 126 298 182 c 2
EndSplineSet
Validated: 1
EndChar

StartChar: aring
Encoding: 229 229 74
Width: 482
Flags: MW
HStem: -10 95<208 210> 211 81<231 261.5 189 265.5> 378 114<200 239.5> 518 48<243.5 260.5 243.5 276.5> 638 48<243.5 260.5>
VStem: 33 133<124.5 162.5 124.5 183.5> 157 63<591 612.5 591 629.5> 284 63<591 612.5> 298 132<182 209 209 209 290 301 301 311 0 324.5>
LayerCount: 2
Fore
SplineSet
252 686 m 0xdb
 301 686 347 657 347 602 c 0
 347 547 301 518 252 518 c 0
 203 518 157 547 157 602 c 0
 157 657 203 686 252 686 c 0xdb
252 638 m 0
 235 638 220 623 220 602 c 0
 220 580 235 566 252 566 c 0
 269 566 284 580 284 602 c 0
 284 623 269 638 252 638 c 0
74 341 m 1xfc80
 66 453 l 1
 107 478 172 492 228 492 c 0
 372 492 430 421 430 311 c 2
 430 0 l 1
 319 0 l 1
 309 61 l 1
 281 9 242 -10 178 -10 c 0
 91 -10 33 43 33 132 c 0
 33 235 126 292 252 292 c 0
 271 292 286 291 298 290 c 1
 298 301 l 2
 298 348 271 378 208 378 c 0
 169 378 113 366 74 341 c 1xfc80
298 182 m 2
 298 209 l 1
 286 210 272 211 259 211 c 0
 203 211 166 184 166 141 c 0
 166 108 190 85 226 85 c 0
 265 85 298 126 298 182 c 2
EndSplineSet
Validated: 1
EndChar

StartChar: atilde
Encoding: 227 227 75
Width: 482
Flags: MW
HStem: -10 95<208 210> 211 81<231 261.5 189 265.5> 378 114<200 239.5> 548 109<173 180 118 204.5> 549 81<300.5 306 294.5 331>
VStem: 33 133<124.5 162.5 124.5 183.5> 118 62<548 554.5 548 571 548 601.5> 298 132<182 209 209 209 290 301 301 311 0 324.5> 324 62<651.5 658>
LayerCount: 2
Fore
SplineSet
386 658 m 1xf080
 386 635 l 2
 386 574 353 549 309 549 c 0
 292 549 270 556 246 565 c 0
 225 573 212 576 203 576 c 0
 189 576 180 561 180 548 c 1
 118 548 l 1
 118 571 l 2
 118 632 151 657 195 657 c 0xf280
 214 657 233 650 257 641 c 0
 277 633 290 630 299 630 c 0xe880
 313 630 324 645 324 658 c 1
 386 658 l 1xf080
74 341 m 1
 66 453 l 1
 107 478 172 492 228 492 c 0
 372 492 430 421 430 311 c 2
 430 0 l 1
 319 0 l 1
 309 61 l 1
 281 9 242 -10 178 -10 c 0
 91 -10 33 43 33 132 c 0xf5
 33 235 126 292 252 292 c 0
 271 292 286 291 298 290 c 1
 298 301 l 2
 298 348 271 378 208 378 c 0xf3
 169 378 113 366 74 341 c 1
298 182 m 2
 298 209 l 1
 286 210 272 211 259 211 c 0
 203 211 166 184 166 141 c 0
 166 108 190 85 226 85 c 0
 265 85 298 126 298 182 c 2
EndSplineSet
Validated: 1
EndChar

StartChar: ae
Encoding: 230 230 76
Width: 746
Flags: MW
HStem: -10 95<208 223> -10 106<524 572.5> 194 93<429 602> 378 114<198 244.5> 392 100<497 550>
VStem: 33 133<124.5 162.5 124.5 183.5> 301 128<182 287 204 287 287 287 287 290 287 313.5> 602 120<287 312.5>
LayerCount: 2
Fore
SplineSet
79 341 m 1xb7
 71 453 l 1
 112 478 170 492 226 492 c 0x77
 298 492 348 461 376 412 c 1
 409 460 459 492 527 492 c 0
 665 492 722 381 722 249 c 0
 722 232 720 210 717 194 c 1
 428 194 l 1
 437 130 493 96 555 96 c 0
 604 96 648 107 683 126 c 1
 692 24 l 1
 654 3 608 -10 537 -10 c 0x6f
 474 -10 404 23 363 90 c 1
 323 20 261 -10 185 -10 c 0
 98 -10 33 43 33 132 c 0
 33 235 129 287 255 287 c 0
 274 287 289 286 301 285 c 1
 301 290 l 2
 301 337 276 378 213 378 c 0
 174 378 118 366 79 341 c 1xb7
429 287 m 1
 602 287 l 1
 602 338 579 392 521 392 c 0xaf
 473 392 435 353 429 287 c 1
301 182 m 2
 301 204 l 1
 289 205 275 206 262 206 c 0
 206 206 166 184 166 141 c 0
 166 108 190 85 226 85 c 0
 265 85 301 126 301 182 c 2
EndSplineSet
Validated: 1
EndChar

StartChar: b
Encoding: 98 98 77
Width: 570
Flags: MW
HStem: -10 101<288.5 326.5 268.5 385.5> 382 110<307 329.5>
VStem: 56 132<174.5 211 211 258 409 735> 404 136<189.5 278>
LayerCount: 2
Fore
SplineSet
188 735 m 1
 188 409 l 1
 220 466 274 492 340 492 c 0
 464 492 540 386 540 248 c 0
 540 87 449 -10 322 -10 c 0
 255 -10 198 24 177 82 c 1
 167 0 l 1
 56 0 l 1
 56 735 l 1
 188 735 l 1
188 258 m 2
 188 211 l 2
 188 138 242 91 295 91 c 0
 358 91 404 141 404 238 c 0
 404 318 370 382 289 382 c 0
 235 382 188 336 188 258 c 2
EndSplineSet
Validated: 1
EndChar

StartChar: c
Encoding: 99 99 78
Width: 436
Flags: MW
HStem: -10 106<260 296.5> 382 110<261 311.5 215 321>
VStem: 30 136<197 284.5 197 313>
LayerCount: 2
Fore
SplineSet
401 120 m 1
 410 16 l 1
 373 -2 323 -10 270 -10 c 0
 128 -10 30 80 30 236 c 0
 30 390 145 492 285 492 c 0
 338 492 384 484 415 468 c 1
 406 360 l 1
 378 373 342 382 300 382 c 0
 222 382 166 327 166 242 c 0
 166 152 222 96 298 96 c 0
 332 96 369 104 401 120 c 1
EndSplineSet
Validated: 1
EndChar

StartChar: ccedilla
Encoding: 231 231 79
Width: 436
Flags: MW
HStem: -194 66<220 244.5 220 265.5> -9 105<297 297> 382 110<261 311.5 215 321>
VStem: 30 136<197 284.5 197 313> 273 84<-109 -92>
LayerCount: 2
Fore
SplineSet
401 120 m 1
 410 16 l 1
 379 1 340 -7 297 -9 c 1
 287 -27 l 1
 335 -32 357 -63 357 -102 c 0
 357 -164 302 -194 229 -194 c 0
 204 -194 175 -189 153 -177 c 1
 180 -119 l 1
 196 -126 210 -128 230 -128 c 0
 259 -128 273 -116 273 -102 c 0
 273 -82 254 -72 198 -72 c 1
 227 -7 l 1
 109 9 30 96 30 236 c 0
 30 390 145 492 285 492 c 0
 338 492 384 484 415 468 c 1
 406 360 l 1
 378 373 342 382 300 382 c 0
 222 382 166 327 166 242 c 0
 166 152 222 96 298 96 c 0
 332 96 369 104 401 120 c 1
EndSplineSet
Validated: 1
EndChar

StartChar: d
Encoding: 100 100 80
Width: 570
Flags: MW
HStem: -10 110<240.5 266.5> 391 101<243.5 277 184.5 301.5>
VStem: 30 136<204 292.5 204 314.5> 382 132<224 271 271 307.5 423 735 0 735>
LayerCount: 2
Fore
SplineSet
514 735 m 1
 514 0 l 1
 403 0 l 1
 391 92 l 1
 361 22 303 -10 230 -10 c 0
 106 -10 30 96 30 234 c 0
 30 395 121 492 248 492 c 0
 306 492 356 467 382 423 c 1
 382 735 l 1
 514 735 l 1
382 224 m 2
 382 271 l 2
 382 344 328 391 275 391 c 0
 212 391 166 341 166 244 c 0
 166 164 200 100 281 100 c 0
 335 100 382 146 382 224 c 2
EndSplineSet
Validated: 1
EndChar

StartChar: e
Encoding: 101 101 81
Width: 478
Flags: MW
HStem: -10 105<244 291> 193 95<157 334 157 449 156 334> 390 102<226 280.5>
VStem: 30 127<288 288 288 308> 334 120<288 315 240.5 316>
LayerCount: 2
Fore
SplineSet
412 125 m 1
 421 25 l 1
 383 4 328 -10 254 -10 c 0
 122 -10 30 68 30 226 c 0
 30 390 127 492 256 492 c 0
 394 492 454 381 454 249 c 0
 454 232 452 209 449 193 c 1
 156 193 l 1
 163 129 208 95 280 95 c 0
 333 95 376 106 412 125 c 1
157 288 m 1
 334 288 l 1
 334 344 311 390 250 390 c 0
 202 390 165 354 157 288 c 1
EndSplineSet
Validated: 1
EndChar

StartChar: eacute
Encoding: 233 233 82
Width: 478
Flags: MW
HStem: -10 105<244 291> 193 95<157 334 157 449 156 334> 390 102<226 280.5> 536.5 133.5
VStem: 30 127<288 288 288 308> 334 120<288 315 240.5 316>
LayerCount: 2
Fore
SplineSet
298 540 m 5
 201 533 l 5
 270 666 l 5
 410 674 l 5
 298 540 l 5
412 125 m 1
 421 25 l 1
 383 4 328 -10 254 -10 c 0
 122 -10 30 68 30 226 c 0
 30 390 127 492 256 492 c 0
 394 492 454 381 454 249 c 0
 454 232 452 209 449 193 c 1
 156 193 l 1
 163 129 208 95 280 95 c 0
 333 95 376 106 412 125 c 1
157 288 m 1
 334 288 l 1
 334 344 311 390 250 390 c 0
 202 390 165 354 157 288 c 1
EndSplineSet
Validated: 1
EndChar

StartChar: ecircumflex
Encoding: 234 234 83
Width: 478
Flags: MW
HStem: -10 105<244 291> 193 95<157 334 157 449 156 334> 390 102<226 280.5> 534 135<200 219 121 307 287 307 200 386 287 287>
VStem: 30 127<288 288 288 308> 334 120<288 315 240.5 316>
LayerCount: 2
Fore
SplineSet
386 534 m 1
 287 534 l 1
 253 612 l 1
 219 534 l 1
 121 534 l 1
 200 669 l 1
 307 669 l 1
 386 534 l 1
412 125 m 1
 421 25 l 1
 383 4 328 -10 254 -10 c 0
 122 -10 30 68 30 226 c 0
 30 390 127 492 256 492 c 0
 394 492 454 381 454 249 c 0
 454 232 452 209 449 193 c 1
 156 193 l 1
 163 129 208 95 280 95 c 0
 333 95 376 106 412 125 c 1
157 288 m 1
 334 288 l 1
 334 344 311 390 250 390 c 0
 202 390 165 354 157 288 c 1
EndSplineSet
Validated: 1
EndChar

StartChar: edieresis
Encoding: 235 235 84
Width: 478
Flags: MW
HStem: -10 105<244 291> 193 95<157 334 157 449 156 334> 390 102<226 280.5> 529 126<140.5 175.5 330.5 365.5>
VStem: 30 127<288 288 288 308> 95 126<574.5 609.5> 285 126<574.5 609.5> 334 120<288 315 240.5 316>
LayerCount: 2
Fore
SplineSet
158 655 m 0xf6
 193 655 221 627 221 592 c 0
 221 557 193 529 158 529 c 0
 123 529 95 557 95 592 c 0
 95 627 123 655 158 655 c 0xf6
348 655 m 0
 383 655 411 627 411 592 c 0
 411 557 383 529 348 529 c 0
 313 529 285 557 285 592 c 0
 285 627 313 655 348 655 c 0
412 125 m 1
 421 25 l 1
 383 4 328 -10 254 -10 c 0
 122 -10 30 68 30 226 c 0
 30 390 127 492 256 492 c 0
 394 492 454 381 454 249 c 0
 454 232 452 209 449 193 c 1
 156 193 l 1xf9
 163 129 208 95 280 95 c 0
 333 95 376 106 412 125 c 1
157 288 m 1
 334 288 l 1
 334 344 311 390 250 390 c 0
 202 390 165 354 157 288 c 1
EndSplineSet
Validated: 1
EndChar

StartChar: egrave
Encoding: 232 232 85
Width: 478
Flags: MW
HStem: -10 105<244 291> 193 95<157 334 157 449 156 334> 390 102<226 280.5> 536.5 133.5
VStem: 30 127<288 288 288 308> 334 120<288 315 240.5 316>
LayerCount: 2
Fore
SplineSet
235 666 m 1
 304 533 l 1
 207 540 l 1
 95 674 l 1
 235 666 l 1
412 125 m 1
 421 25 l 1
 383 4 328 -10 254 -10 c 0
 122 -10 30 68 30 226 c 0
 30 390 127 492 256 492 c 0
 394 492 454 381 454 249 c 0
 454 232 452 209 449 193 c 1
 156 193 l 1
 163 129 208 95 280 95 c 0
 333 95 376 106 412 125 c 1
157 288 m 1
 334 288 l 1
 334 344 311 390 250 390 c 0
 202 390 165 354 157 288 c 1
EndSplineSet
Validated: 1
EndChar

StartChar: f
Encoding: 102 102 86
Width: 351
Flags: MW
HStem: 374 104<13 80 13 80 212 343> 635 110<285.5 332>
VStem: 80 132<0 374 0 374 478 506 506 517>
LayerCount: 2
Fore
SplineSet
80 478 m 1
 80 506 l 2
 80 666 184 745 317 745 c 0
 347 745 379 740 399 732 c 1
 390 623 l 1
 371 631 346 635 318 635 c 0
 253 635 212 589 212 517 c 2
 212 478 l 1
 343 478 l 1
 343 374 l 1
 212 374 l 1
 212 0 l 1
 80 0 l 1
 80 374 l 1
 13 374 l 1
 13 478 l 1
 80 478 l 1
EndSplineSet
Validated: 1
EndChar

StartChar: g
Encoding: 103 103 87
Width: 570
Flags: HMW
HStem: -215 108<208 284 208 312.5> -10 110<240.5 263.5> 391 101<243.5 281.5 184.5 301.5>
VStem: 30 136<204 292.5 204 314.5> 382 132<224 271 271 307.5>
LayerCount: 2
Fore
SplineSet
514 482 m 1
 514 66 l 2
 514 -135 391 -215 234 -215 c 0
 172 -215 116 -202 75 -174 c 1
 80 -57 l 1
 129 -91 180 -107 236 -107 c 0
 328.728758976 -107 383.204096469 -51.9523934753 383.204096469 40.1184684524 c 0
 383.204096469 43.3665004976 383.136301709 46.6606081212 383 50 c 1
 383 75 l 1
 351 17 297 -10 230 -10 c 0
 106 -10 30 96 30 234 c 0
 30 395 121 492 248 492 c 0
 315 492 372 458 393 400 c 1
 403 482 l 1
 514 482 l 1
382 224 m 2
 382 271 l 2
 382 344 328 391 275 391 c 0
 212 391 166 341 166 244 c 0
 166 164 200 100 281 100 c 0
 335 100 382 146 382 224 c 2
EndSplineSet
Validated: 524289
EndChar

StartChar: gbreve
Encoding: 287 287 88
Width: 570
Flags: HMW
HStem: -215 108<208 284 208 312.5> -10 110<240.5 263.5> 391 101<243.5 281.5 184.5 301.5> 535 69<274.5 301.5 274.5 326.5>
VStem: 30 136<204 292.5 204 314.5> 167 73<622.5 663> 336 73<622.5 663> 382 132<224 271 271 307.5>
LayerCount: 2
Fore
SplineSet
167 663 m 1xf6
 240 663 l 1
 242 624 261 604 288 604 c 0
 315 604 334 624 336 663 c 1
 409 663 l 1
 409 582 365 535 288 535 c 0
 210 535 167 582 167 663 c 1xf6
514 482 m 1xf9
 514 66 l 2
 514 -135 391 -215 234 -215 c 0
 172 -215 116 -202 75 -174 c 1
 80 -57 l 1
 129 -91 180 -107 236 -107 c 0
 328.728758976 -107 383.204096469 -51.9523934753 383.204096469 40.1184684524 c 0
 383.204096469 43.3665004976 383.136301709 46.6606081212 383 50 c 1
 383 75 l 1
 351 17 297 -10 230 -10 c 0
 106 -10 30 96 30 234 c 0
 30 395 121 492 248 492 c 0
 315 492 372 458 393 400 c 1
 403 482 l 1
 514 482 l 1xf9
382 224 m 2
 382 271 l 2
 382 344 328 391 275 391 c 0
 212 391 166 341 166 244 c 0
 166 164 200 100 281 100 c 0
 335 100 382 146 382 224 c 2
EndSplineSet
Validated: 524289
EndChar

StartChar: h
Encoding: 104 104 89
Width: 543
Flags: MW
HStem: 372 118<291 303>
VStem: 56 132<0 248 416 735> 359 132<0 267 267 298>
LayerCount: 2
Fore
SplineSet
188 735 m 1
 188 416 l 1
 214 467 263 490 319 490 c 0
 427 490 491 418 491 320 c 2
 491 0 l 1
 359 0 l 1
 359 267 l 2
 359 329 331 372 275 372 c 0
 220 372 188 324 188 248 c 2
 188 0 l 1
 56 0 l 1
 56 735 l 1
 188 735 l 1
EndSplineSet
Validated: 1
EndChar

StartChar: i
Encoding: 105 105 90
Width: 244
Flags: MW
HStem: 532 140<101 143>
VStem: 46 152<582.5 621.5> 56 132<0 482 0 482>
LayerCount: 2
Fore
SplineSet
122 672 m 0xc0
 164 672 198 641 198 602 c 0
 198 563 164 532 122 532 c 0
 80 532 46 563 46 602 c 0
 46 641 80 672 122 672 c 0xc0
56 0 m 1xa0
 56 482 l 1
 188 482 l 1
 188 0 l 1
 56 0 l 1xa0
EndSplineSet
Validated: 1
EndChar

StartChar: dotlessi
Encoding: 305 305 91
Width: 252
Flags: MW
HStem: 0 482<60 192 60 192>
VStem: 60 132<0 482>
LayerCount: 2
Fore
SplineSet
192 0 m 1
 60 0 l 1
 60 482 l 1
 192 482 l 1
 192 0 l 1
EndSplineSet
Validated: 1
EndChar

StartChar: iacute
Encoding: 237 237 92
Width: 252
Flags: MW
HStem: 536.5 133.5
VStem: 60 132<0 482 0 482>
LayerCount: 2
Fore
SplineSet
171 540 m 1
 74 533 l 1
 143 666 l 1
 283 674 l 1
 171 540 l 1
60 0 m 1
 60 482 l 1
 192 482 l 1
 192 0 l 1
 60 0 l 1
EndSplineSet
Validated: 1
EndChar

StartChar: icircumflex
Encoding: 238 238 93
Width: 252
Flags: MW
HStem: 534 135<73 92 -6 180 160 180 73 259 160 160>
VStem: 60 132<0 482 0 482>
LayerCount: 2
Fore
SplineSet
259 534 m 1
 160 534 l 1
 126 612 l 1
 92 534 l 1
 -6 534 l 1
 73 669 l 1
 180 669 l 1
 259 534 l 1
60 0 m 1
 60 482 l 1
 192 482 l 1
 192 0 l 1
 60 0 l 1
EndSplineSet
Validated: 1
EndChar

StartChar: idieresis
Encoding: 239 239 94
Width: 252
Flags: MW
HStem: 529 126<13.5 48.5 203.5 238.5>
VStem: -32 126<574.5 609.5> 60 132<0 482 0 482> 158 126<574.5 609.5>
LayerCount: 2
Fore
SplineSet
31 655 m 0xd0
 66 655 94 627 94 592 c 0
 94 557 66 529 31 529 c 0
 -4 529 -32 557 -32 592 c 0
 -32 627 -4 655 31 655 c 0xd0
221 655 m 0
 256 655 284 627 284 592 c 0
 284 557 256 529 221 529 c 0
 186 529 158 557 158 592 c 0
 158 627 186 655 221 655 c 0
60 0 m 1xa0
 60 482 l 1
 192 482 l 1
 192 0 l 1
 60 0 l 1xa0
EndSplineSet
Validated: 1
EndChar

StartChar: igrave
Encoding: 236 236 95
Width: 252
Flags: MW
HStem: 536.5 133.5
VStem: 60 132<0 482 0 482>
LayerCount: 2
Fore
SplineSet
108 666 m 1
 177 533 l 1
 80 540 l 1
 -32 674 l 1
 108 666 l 1
60 0 m 1
 60 482 l 1
 192 482 l 1
 192 0 l 1
 60 0 l 1
EndSplineSet
Validated: 1
EndChar

StartChar: ij
Encoding: 307 307 96
Width: 513
Flags: MW
HStem: 532 140<101 143 372 414>
VStem: 46 152<582.5 621.5> 56 132<0 482 0 482> 317 152<582.5 621.5> 327 132<143 146 146 482>
LayerCount: 2
Fore
SplineSet
122 672 m 0xd0
 164 672 198 641 198 602 c 0
 198 563 164 532 122 532 c 0
 80 532 46 563 46 602 c 0
 46 641 80 672 122 672 c 0xd0
393 672 m 0
 435 672 469 641 469 602 c 0
 469 563 435 532 393 532 c 0
 351 532 317 563 317 602 c 0
 317 641 351 672 393 672 c 0
56 482 m 1xa8
 188 482 l 1
 188 0 l 1
 56 0 l 1
 56 482 l 1xa8
459 482 m 1
 459 146 l 2
 459 -55 368 -152 230 -215 c 1
 172 -107 l 1
 286 -55 327 16 327 143 c 2
 327 482 l 1
 459 482 l 1
EndSplineSet
Validated: 1
EndChar

StartChar: j
Encoding: 106 106 97
Width: 269
Flags: MW
HStem: 532 140<128 170>
VStem: 73 152<582.5 621.5> 83 132<143 146 146 482>
LayerCount: 2
Fore
SplineSet
149 672 m 0xc0
 191 672 225 641 225 602 c 0
 225 563 191 532 149 532 c 0
 107 532 73 563 73 602 c 0
 73 641 107 672 149 672 c 0xc0
215 482 m 1xa0
 215 146 l 2
 215 -55 124 -152 -14 -215 c 1
 -72 -107 l 1
 42 -55 83 16 83 143 c 2
 83 482 l 1
 215 482 l 1xa0
EndSplineSet
Validated: 1
EndChar

StartChar: k
Encoding: 107 107 98
Width: 482
Flags: MW
HStem: 0 735<56 188 56 188 56 497 56 329>
VStem: 56 132<0 162 0 277 277 735>
LayerCount: 2
Fore
SplineSet
307 264 m 1
 497 0 l 1
 329 0 l 1
 207 184 l 1
 188 162 l 1
 188 0 l 1
 56 0 l 1
 56 735 l 1
 188 735 l 1
 188 277 l 1
 339 482 l 1
 498 482 l 1
 307 264 l 1
EndSplineSet
Validated: 1
EndChar

StartChar: l
Encoding: 108 108 99
Width: 244
Flags: MW
HStem: 0 735<56 188 56 188>
VStem: 56 132<0 735>
LayerCount: 2
Fore
SplineSet
188 0 m 1
 56 0 l 1
 56 735 l 1
 188 735 l 1
 188 0 l 1
EndSplineSet
Validated: 1
EndChar

StartChar: m
Encoding: 109 109 100
Width: 826
Flags: MW
HStem: 374 118<285 302 578.5 595>
VStem: 56 132<0 248 0 482> 349 132<0 248 0 269 0 300> 642 132<0 269 269 300>
LayerCount: 2
Fore
SplineSet
167 482 m 1
 178 391 l 1
 198 459 253 492 317 492 c 0
 395 492 446 454 468 397 c 1
 496 455 547 492 610 492 c 0
 718 492 774 420 774 322 c 2
 774 0 l 1
 642 0 l 1
 642 269 l 2
 642 331 623 374 567 374 c 0
 514 374 481 324 481 248 c 2
 481 0 l 1
 349 0 l 1
 349 269 l 2
 349 331 330 374 274 374 c 0
 221 374 188 324 188 248 c 2
 188 0 l 1
 56 0 l 1
 56 482 l 1
 167 482 l 1
EndSplineSet
Validated: 1
EndChar

StartChar: n
Encoding: 110 110 101
Width: 543
Flags: MW
HStem: 374 118<286.5 303>
VStem: 56 132<0 248 0 482> 359 132<0 269 269 300>
LayerCount: 2
Fore
SplineSet
167 482 m 1
 178 391 l 1
 199 460 254 492 319 492 c 0
 427 492 491 420 491 322 c 2
 491 0 l 1
 359 0 l 1
 359 269 l 2
 359 331 331 374 275 374 c 0
 220 374 188 324 188 248 c 2
 188 0 l 1
 56 0 l 1
 56 482 l 1
 167 482 l 1
EndSplineSet
Validated: 1
EndChar

StartChar: ntilde
Encoding: 241 241 102
Width: 543
Flags: MW
HStem: 374 118<286.5 303> 548 109<206 213 151 237.5> 549 81<333.5 339 327.5 364>
VStem: 56 132<0 248 0 482> 151 62<548 554.5 548 571 548 601.5> 357 62<651.5 658> 359 132<0 269 269 300>
LayerCount: 2
Fore
SplineSet
419 658 m 1xd4
 419 635 l 2
 419 574 386 549 342 549 c 0
 325 549 303 556 279 565 c 0
 258 573 245 576 236 576 c 0
 222 576 213 561 213 548 c 1
 151 548 l 1
 151 571 l 2
 151 632 184 657 228 657 c 0xcc
 247 657 266 650 290 641 c 0
 310 633 323 630 332 630 c 0xb4
 346 630 357 645 357 658 c 1
 419 658 l 1xd4
167 482 m 1xd2
 178 391 l 1
 199 460 254 492 319 492 c 0
 427 492 491 420 491 322 c 2
 491 0 l 1
 359 0 l 1
 359 269 l 2
 359 331 331 374 275 374 c 0
 220 374 188 324 188 248 c 2
 188 0 l 1
 56 0 l 1
 56 482 l 1
 167 482 l 1xd2
EndSplineSet
Validated: 1
EndChar

StartChar: o
Encoding: 111 111 103
Width: 542
Flags: MW
HStem: -10 102<240.5 301.5 240.5 338> 390 102<240.5 301.5>
VStem: 30 139<192 290.5 192 322> 373 139<192 290.5>
LayerCount: 2
Fore
SplineSet
271 492 m 0
 405 492 512 403 512 241 c 0
 512 80 405 -10 271 -10 c 0
 137 -10 30 80 30 241 c 0
 30 403 137 492 271 492 c 0
271 390 m 0
 210 390 169 340 169 241 c 0
 169 143 210 92 271 92 c 0
 332 92 373 143 373 241 c 0
 373 340 332 390 271 390 c 0
EndSplineSet
Validated: 1
EndChar

StartChar: oacute
Encoding: 243 243 104
Width: 542
Flags: MW
HStem: -10 102<240.5 301.5 240.5 338> 390 102<240.5 301.5> 536.5 133.5
VStem: 30 139<192 290.5 192 322> 373 139<192 290.5>
LayerCount: 2
Fore
SplineSet
316 540 m 1
 219 533 l 1
 288 666 l 1
 428 674 l 1
 316 540 l 1
271 492 m 0
 405 492 512 403 512 241 c 0
 512 80 405 -10 271 -10 c 0
 137 -10 30 80 30 241 c 0
 30 403 137 492 271 492 c 0
271 390 m 0
 210 390 169 340 169 241 c 0
 169 143 210 92 271 92 c 0
 332 92 373 143 373 241 c 0
 373 340 332 390 271 390 c 0
EndSplineSet
Validated: 1
EndChar

StartChar: ocircumflex
Encoding: 244 244 105
Width: 542
Flags: MW
HStem: -10 102<240.5 301.5 240.5 338> 390 102<240.5 301.5> 534 135<218 237 139 325 305 325 218 404 305 305>
VStem: 30 139<192 290.5 192 322> 373 139<192 290.5>
LayerCount: 2
Fore
SplineSet
404 534 m 1
 305 534 l 1
 271 612 l 1
 237 534 l 1
 139 534 l 1
 218 669 l 1
 325 669 l 1
 404 534 l 1
271 492 m 0
 405 492 512 403 512 241 c 0
 512 80 405 -10 271 -10 c 0
 137 -10 30 80 30 241 c 0
 30 403 137 492 271 492 c 0
271 390 m 0
 210 390 169 340 169 241 c 0
 169 143 210 92 271 92 c 0
 332 92 373 143 373 241 c 0
 373 340 332 390 271 390 c 0
EndSplineSet
Validated: 1
EndChar

StartChar: odieresis
Encoding: 246 246 106
Width: 542
Flags: MW
HStem: -10 102<240.5 301.5 240.5 338> 390 102<240.5 301.5> 529 126<158.5 193.5 348.5 383.5>
VStem: 30 139<192 290.5 192 322> 113 126<574.5 609.5> 303 126<574.5 609.5> 373 139<192 290.5>
LayerCount: 2
Fore
SplineSet
176 655 m 0xec
 211 655 239 627 239 592 c 0
 239 557 211 529 176 529 c 0
 141 529 113 557 113 592 c 0
 113 627 141 655 176 655 c 0xec
366 655 m 0
 401 655 429 627 429 592 c 0
 429 557 401 529 366 529 c 0
 331 529 303 557 303 592 c 0
 303 627 331 655 366 655 c 0
271 492 m 0xf2
 405 492 512 403 512 241 c 0
 512 80 405 -10 271 -10 c 0
 137 -10 30 80 30 241 c 0
 30 403 137 492 271 492 c 0xf2
271 390 m 0
 210 390 169 340 169 241 c 0
 169 143 210 92 271 92 c 0
 332 92 373 143 373 241 c 0
 373 340 332 390 271 390 c 0
EndSplineSet
Validated: 1
EndChar

StartChar: ograve
Encoding: 242 242 107
Width: 542
Flags: MW
HStem: -10 102<240.5 301.5 240.5 338> 390 102<240.5 301.5> 536.5 133.5
VStem: 30 139<192 290.5 192 322> 373 139<192 290.5>
LayerCount: 2
Fore
SplineSet
253 666 m 1
 322 533 l 1
 225 540 l 1
 113 674 l 1
 253 666 l 1
271 492 m 0
 405 492 512 403 512 241 c 0
 512 80 405 -10 271 -10 c 0
 137 -10 30 80 30 241 c 0
 30 403 137 492 271 492 c 0
271 390 m 0
 210 390 169 340 169 241 c 0
 169 143 210 92 271 92 c 0
 332 92 373 143 373 241 c 0
 373 340 332 390 271 390 c 0
EndSplineSet
Validated: 1
EndChar

StartChar: oslash
Encoding: 248 248 108
Width: 538
Flags: MW
HStem: -10 102<260 301.5 260 338> 390 102<240.5 281.5>
VStem: 30 139<233 290.5 233 322> 373 139<192 249.5>
LayerCount: 2
Fore
SplineSet
523 460 m 1
 467 397 l 1
 495 357 512 305 512 241 c 0
 512 80 405 -10 271 -10 c 0
 222 -10 176 2 138 26 c 1
 80 -40 l 1
 15 20 l 1
 74 86 l 1
 46 126 30 178 30 241 c 0
 30 403 137 492 271 492 c 0
 320 492 365 480 403 457 c 1
 458 520 l 1
 523 460 l 1
172 197 m 1
 327 372 l 1
 311 384 292 390 271 390 c 0
 210 390 169 340 169 241 c 0
 169 225 170 211 172 197 c 1
370 287 m 1
 214 111 l 1
 230 99 249 92 271 92 c 0
 332 92 373 143 373 241 c 0
 373 258 372 273 370 287 c 1
EndSplineSet
Validated: 1
EndChar

StartChar: otilde
Encoding: 245 245 109
Width: 542
Flags: MW
HStem: -10 102<240.5 301.5 240.5 338> 390 102<240.5 301.5> 548 109<192 199 137 223.5> 549 81<319.5 325 313.5 350>
VStem: 30 139<192 290.5 192 322> 137 62<548 554.5 548 571 548 601.5> 343 62<651.5 658> 373 139<192 290.5>
LayerCount: 2
Fore
SplineSet
405 658 m 1xea
 405 635 l 2
 405 574 372 549 328 549 c 0
 311 549 289 556 265 565 c 0
 244 573 231 576 222 576 c 0
 208 576 199 561 199 548 c 1
 137 548 l 1
 137 571 l 2
 137 632 170 657 214 657 c 0xe6
 233 657 252 650 276 641 c 0
 296 633 309 630 318 630 c 0xda
 332 630 343 645 343 658 c 1
 405 658 l 1xea
271 492 m 0xe9
 405 492 512 403 512 241 c 0
 512 80 405 -10 271 -10 c 0
 137 -10 30 80 30 241 c 0
 30 403 137 492 271 492 c 0xe9
271 390 m 0
 210 390 169 340 169 241 c 0
 169 143 210 92 271 92 c 0
 332 92 373 143 373 241 c 0
 373 340 332 390 271 390 c 0
EndSplineSet
Validated: 1
EndChar

StartChar: oe
Encoding: 339 339 110
Width: 821
Flags: MW
HStem: -10 102<240.5 301.5 240.5 307.5> -10 106<590.5 638> 194 93<501 677 501 792 500 677> 390 102<240.5 301.5>
VStem: 30 139<192 290.5 192 322> 373 128<287 287 287 290.5> 677 120<287 312.5>
LayerCount: 2
Fore
SplineSet
758 126 m 1x7e
 767 24 l 1
 729 3 675 -10 601 -10 c 0x7e
 529 -10 474 20 440 72 c 1
 403 20 344 -10 271 -10 c 0xbe
 137 -10 30 80 30 241 c 0
 30 403 137 492 271 492 c 0
 346 492 404 461 442 408 c 1
 476 460 529 492 599 492 c 0
 737 492 797 381 797 249 c 0
 797 232 795 210 792 194 c 1
 500 194 l 1
 509 130 554 96 627 96 c 0
 679 96 723 107 758 126 c 1x7e
501 287 m 1
 677 287 l 1
 677 338 651 392 593 392 c 0
 545 392 507 353 501 287 c 1
271 92 m 0xbe
 332 92 373 143 373 241 c 0
 373 340 332 390 271 390 c 0
 210 390 169 340 169 241 c 0
 169 143 210 92 271 92 c 0xbe
EndSplineSet
Validated: 1
EndChar

StartChar: p
Encoding: 112 112 111
Width: 570
Flags: MW
HStem: -10 101<293 326.5 268.5 385.5> 382 110<303 329.5>
VStem: 56 132<-205 59 174.5 211 211 258> 404 136<189.5 278>
LayerCount: 2
Fore
SplineSet
167 478 m 1
 178 389 l 1
 208 460 266 492 340 492 c 0
 464 492 540 386 540 248 c 0
 540 87 449 -10 322 -10 c 0
 264 -10 214 15 188 59 c 1
 188 -205 l 1
 56 -205 l 1
 56 478 l 1
 167 478 l 1
188 258 m 2
 188 211 l 2
 188 138 242 91 295 91 c 0
 358 91 404 141 404 238 c 0
 404 318 370 382 289 382 c 0
 235 382 188 336 188 258 c 2
EndSplineSet
Validated: 1
EndChar

StartChar: q
Encoding: 113 113 112
Width: 570
Flags: MW
HStem: -10 110<240.5 263> 391 101<243.5 281.5 184.5 301.5>
VStem: 30 136<204 292.5 204 314.5> 382 132<-205 73 73 73 224 271 271 307.5>
LayerCount: 2
Fore
SplineSet
514 478 m 1
 514 -205 l 1
 382 -205 l 1
 382 73 l 1
 350 16 296 -10 230 -10 c 0
 106 -10 30 96 30 234 c 0
 30 395 121 492 248 492 c 0
 315 492 372 458 393 399 c 1
 403 478 l 1
 514 478 l 1
382 224 m 2
 382 271 l 2
 382 344 328 391 275 391 c 0
 212 391 166 341 166 244 c 0
 166 164 200 100 281 100 c 0
 335 100 382 146 382 224 c 2
EndSplineSet
Validated: 1
EndChar

StartChar: r
Encoding: 114 114 113
Width: 357
Flags: MW
HStem: 376 116<270 293>
VStem: 56 132<0 236 0 482>
LayerCount: 2
Fore
SplineSet
167 482 m 1
 177 401 l 1
 194 456 247 492 293 492 c 0
 310 492 330 489 341 484 c 1
 336 367 l 1
 320 374 305 376 281 376 c 0
 219 376 188 317 188 236 c 2
 188 0 l 1
 56 0 l 1
 56 482 l 1
 167 482 l 1
EndSplineSet
Validated: 1
EndChar

StartChar: s
Encoding: 115 115 114
Width: 391
Flags: MW
HStem: -10 106<143 182.5 143 217> 386 105<228 260.5 184 266>
VStem: 45 134<325.5 354 325.5 384.5> 230 133<126.5 153>
LayerCount: 2
Fore
SplineSet
35 16 m 1
 45 121 l 1
 87 102 125 96 161 96 c 0
 204 96 230 113 230 140 c 0
 230 166 208 180 167 191 c 0
 82 213 45 257 45 332 c 0
 45 437 135 491 233 491 c 0
 288 491 326 482 354 470 c 1
 346 362 l 1
 316 378 284 386 248 386 c 0
 208 386 179 369 179 339 c 0
 179 312 200 296 233 288 c 0
 327 266 363 220 363 148 c 0
 363 50 273 -10 161 -10 c 0
 119 -10 71 -1 35 16 c 1
EndSplineSet
Validated: 1
EndChar

StartChar: scedilla
Encoding: 351 351 115
Width: 391
Flags: MW
HStem: -201 66<155 179.5 155 200.5> -10 106<143 161 161 164> 386 105<228 260.5 184 266>
VStem: 45 134<325.5 354 325.5 384.5> 208 84<-116 -99> 230 133<126.5 153>
LayerCount: 2
Fore
SplineSet
354 470 m 1xf4
 346 362 l 1
 316 378 284 386 248 386 c 0
 208 386 179 369 179 339 c 0
 179 312 200 296 233 288 c 0
 327 266 363 220 363 148 c 0xf4
 363 75 313 23 240 1 c 1
 242 1 l 1
 222 -34 l 1
 270 -39 292 -70 292 -109 c 0
 292 -171 237 -201 164 -201 c 0
 139 -201 110 -196 88 -184 c 1
 115 -126 l 1
 131 -133 145 -135 165 -135 c 0
 194 -135 208 -123 208 -109 c 0
 208 -89 189 -79 133 -79 c 1
 164 -10 l 1
 161 -10 l 2xf8
 119 -10 71 -1 35 16 c 1
 45 121 l 1
 87 102 125 96 161 96 c 0
 204 96 230 113 230 140 c 0
 230 166 208 180 167 191 c 0
 82 213 45 257 45 332 c 0
 45 437 135 491 233 491 c 0
 288 491 326 482 354 470 c 1xf4
EndSplineSet
Validated: 1
EndChar

StartChar: germandbls
Encoding: 223 223 116
Width: 600
Flags: MW
HStem: -8 110<320 353.5 320 390.5> 294 114<284 320.5> 374 104<15 74 15 74> 635 110<276.5 339>
VStem: 74 132<0 374 374 374 478 485 485 494 0 576> 405 140<511 564.5> 424 142<163.5 228>
LayerCount: 2
Fore
SplineSet
244 4 m 1xba
 249 115 l 1
 278 106 309 102 331 102 c 0
 376 102 424 134 424 193 c 0xda
 424 263 382 293 284 294 c 1
 284 408 l 1xdc
 357 408 405 463 405 533 c 0
 405 596 371 635 307 635 c 0
 246 635 206 581 206 494 c 2
 206 0 l 1
 74 0 l 1
 74 374 l 1
 15 374 l 1
 15 478 l 1
 74 478 l 1
 74 485 l 2
 74 667 197 745 310 745 c 0
 453 745 545 671 545 557 c 0xbc
 545 465 482 405 411 393 c 1
 515 372 566 295 566 206 c 0
 566 59 455 -8 326 -8 c 0
 301 -8 269 -4 244 4 c 1xba
EndSplineSet
Validated: 1
EndChar

StartChar: t
Encoding: 116 116 117
Width: 377
Flags: MW
HStem: -10 108<262 266.5> 374 104<12 83 12 83 215 349>
VStem: 83 132<153 180 180 374 478 600>
LayerCount: 2
Fore
SplineSet
215 478 m 1
 349 478 l 1
 349 374 l 1
 215 374 l 1
 215 180 l 2
 215 122 239 98 285 98 c 0
 306 98 329 102 347 109 c 1
 352 9 l 1
 324 -3 284 -10 249 -10 c 0
 140 -10 83 44 83 153 c 2
 83 374 l 1
 12 374 l 1
 12 478 l 1
 83 478 l 1
 83 600 l 1
 215 600 l 1
 215 478 l 1
EndSplineSet
Validated: 1
EndChar

StartChar: u
Encoding: 117 117 118
Width: 543
Flags: MW
HStem: -10 118<240 256.5>
VStem: 52 132<182 213 213 482> 355 132<234 482 0 482>
LayerCount: 2
Fore
SplineSet
487 482 m 1
 487 0 l 1
 376 0 l 1
 365 91 l 1
 344 22 289 -10 224 -10 c 0
 116 -10 52 62 52 160 c 2
 52 482 l 1
 184 482 l 1
 184 213 l 2
 184 151 212 108 268 108 c 0
 323 108 355 158 355 234 c 2
 355 482 l 1
 487 482 l 1
EndSplineSet
Validated: 1
EndChar

StartChar: uacute
Encoding: 250 250 119
Width: 543
Flags: MW
HStem: -10 118<240 256.5> 536.5 133.5
VStem: 52 132<182 213 213 482> 355 132<234 482>
LayerCount: 2
Fore
SplineSet
314 540 m 1
 217 533 l 1
 286 666 l 1
 426 674 l 1
 314 540 l 1
487 0 m 1
 376 0 l 1
 365 91 l 1
 344 22 289 -10 224 -10 c 0
 116 -10 52 62 52 160 c 2
 52 482 l 1
 184 482 l 1
 184 213 l 2
 184 151 212 108 268 108 c 0
 323 108 355 158 355 234 c 2
 355 482 l 1
 487 482 l 1
 487 0 l 1
EndSplineSet
Validated: 1
EndChar

StartChar: ucircumflex
Encoding: 251 251 120
Width: 543
Flags: MW
HStem: -10 118<240 256.5> 534 135<216 235 137 323 303 323 216 402 303 303>
VStem: 52 132<182 213 213 482> 355 132<234 482>
LayerCount: 2
Fore
SplineSet
402 534 m 1
 303 534 l 1
 269 612 l 1
 235 534 l 1
 137 534 l 1
 216 669 l 1
 323 669 l 1
 402 534 l 1
487 0 m 1
 376 0 l 1
 365 91 l 1
 344 22 289 -10 224 -10 c 0
 116 -10 52 62 52 160 c 2
 52 482 l 1
 184 482 l 1
 184 213 l 2
 184 151 212 108 268 108 c 0
 323 108 355 158 355 234 c 2
 355 482 l 1
 487 482 l 1
 487 0 l 1
EndSplineSet
Validated: 1
EndChar

StartChar: udieresis
Encoding: 252 252 121
Width: 543
Flags: MW
HStem: -10 118<240 256.5> 529 126<156.5 191.5 346.5 381.5>
VStem: 52 132<182 213 213 482> 111 126<574.5 609.5> 301 126<574.5 609.5> 355 132<234 482>
LayerCount: 2
Fore
SplineSet
174 655 m 0xe4
 209 655 237 627 237 592 c 0xd4
 237 557 209 529 174 529 c 0
 139 529 111 557 111 592 c 0
 111 627 139 655 174 655 c 0xe4
364 655 m 0
 399 655 427 627 427 592 c 0xe4
 427 557 399 529 364 529 c 0
 329 529 301 557 301 592 c 0xe8
 301 627 329 655 364 655 c 0
487 0 m 1
 376 0 l 1
 365 91 l 1
 344 22 289 -10 224 -10 c 0
 116 -10 52 62 52 160 c 2
 52 482 l 1
 184 482 l 1
 184 213 l 2
 184 151 212 108 268 108 c 0
 323 108 355 158 355 234 c 2
 355 482 l 1
 487 482 l 1
 487 0 l 1
EndSplineSet
Validated: 1
EndChar

StartChar: ugrave
Encoding: 249 249 122
Width: 543
Flags: MW
HStem: -10 118<240 256.5> 536.5 133.5
VStem: 52 132<182 213 213 482> 355 132<234 482>
LayerCount: 2
Fore
SplineSet
251 666 m 1
 320 533 l 1
 223 540 l 1
 111 674 l 1
 251 666 l 1
487 0 m 1
 376 0 l 1
 365 91 l 1
 344 22 289 -10 224 -10 c 0
 116 -10 52 62 52 160 c 2
 52 482 l 1
 184 482 l 1
 184 213 l 2
 184 151 212 108 268 108 c 0
 323 108 355 158 355 234 c 2
 355 482 l 1
 487 482 l 1
 487 0 l 1
EndSplineSet
Validated: 1
EndChar

StartChar: v
Encoding: 118 118 123
Width: 502
Flags: MW
HStem: 0 482<3 328 3 178>
VStem: 3 504<482 482>
LayerCount: 2
Fore
SplineSet
328 0 m 1
 178 0 l 1
 3 482 l 1
 158 482 l 1
 256 114 l 1
 357 482 l 1
 507 482 l 1
 328 0 l 1
EndSplineSet
Validated: 1
EndChar

StartChar: w
Encoding: 119 119 124
Width: 712
Flags: MW
HStem: 0 93 398 80
VStem: 3 714<482 482>
LayerCount: 2
Fore
SplineSet
581 0 m 1
 433 0 l 1
 387 198 l 2
 377 240 368 298 362 398 c 1
 356 298 347 240 337 198 c 2
 290 0 l 1
 140 0 l 1
 3 482 l 1
 147 482 l 1
 195 238 l 2
 203 198 210 154 217 93 c 1
 224 154 231 198 240 238 c 2
 293 478 l 1
 436 478 l 1
 487 238 l 2
 495 198 503 153 511 93 c 1
 517 153 524 198 532 238 c 2
 580 482 l 1
 717 482 l 1
 581 0 l 1
EndSplineSet
Validated: 1
EndChar

StartChar: wacute
Encoding: 7811 7811 125
Width: 712
Flags: MW
HStem: 0 93 398 80 536.5 133.5
VStem: 3 714<482 482>
LayerCount: 2
Fore
SplineSet
409 540 m 1
 312 533 l 1
 381 666 l 1
 521 674 l 1
 409 540 l 1
433 0 m 1
 387 198 l 2
 377 240 368 298 362 398 c 1
 356 298 347 240 337 198 c 2
 290 0 l 1
 140 0 l 1
 3 482 l 1
 147 482 l 1
 195 238 l 2
 203 198 210 154 217 93 c 1
 224 154 231 198 240 238 c 2
 293 478 l 1
 436 478 l 1
 487 238 l 2
 495 198 503 153 511 93 c 1
 517 153 524 198 532 238 c 2
 580 482 l 1
 717 482 l 1
 581 0 l 1
 433 0 l 1
EndSplineSet
Validated: 1
EndChar

StartChar: wcircumflex
Encoding: 373 373 126
Width: 712
Flags: MW
HStem: 0 93 398 80 534 135<311 330 232 418 398 418 311 497 398 398>
VStem: 3 714<482 482>
LayerCount: 2
Fore
SplineSet
497 534 m 1
 398 534 l 1
 364 612 l 1
 330 534 l 1
 232 534 l 1
 311 669 l 1
 418 669 l 1
 497 534 l 1
433 0 m 1
 387 198 l 2
 377 240 368 298 362 398 c 1
 356 298 347 240 337 198 c 2
 290 0 l 1
 140 0 l 1
 3 482 l 1
 147 482 l 1
 195 238 l 2
 203 198 210 154 217 93 c 1
 224 154 231 198 240 238 c 2
 293 478 l 1
 436 478 l 1
 487 238 l 2
 495 198 503 153 511 93 c 1
 517 153 524 198 532 238 c 2
 580 482 l 1
 717 482 l 1
 581 0 l 1
 433 0 l 1
EndSplineSet
Validated: 1
EndChar

StartChar: wdieresis
Encoding: 7813 7813 127
Width: 712
Flags: MW
HStem: 0 93 398 80 529 126<251.5 286.5 441.5 476.5>
VStem: 206 126<574.5 609.5> 396 126<574.5 609.5>
LayerCount: 2
Fore
SplineSet
269 655 m 0
 304 655 332 627 332 592 c 0
 332 557 304 529 269 529 c 0
 234 529 206 557 206 592 c 0
 206 627 234 655 269 655 c 0
459 655 m 0
 494 655 522 627 522 592 c 0
 522 557 494 529 459 529 c 0
 424 529 396 557 396 592 c 0
 396 627 424 655 459 655 c 0
433 0 m 1
 387 198 l 2
 377 240 368 298 362 398 c 1
 356 298 347 240 337 198 c 2
 290 0 l 1
 140 0 l 1
 3 482 l 1
 147 482 l 1
 195 238 l 2
 203 198 210 154 217 93 c 1
 224 154 231 198 240 238 c 2
 293 478 l 1
 436 478 l 1
 487 238 l 2
 495 198 503 153 511 93 c 1
 517 153 524 198 532 238 c 2
 580 482 l 1
 717 482 l 1
 581 0 l 1
 433 0 l 1
EndSplineSet
Validated: 1
EndChar

StartChar: wgrave
Encoding: 7809 7809 128
Width: 712
Flags: MW
HStem: 0 93 398 80 536.5 133.5
VStem: 3 714<482 482>
LayerCount: 2
Fore
SplineSet
346 666 m 1
 415 533 l 1
 318 540 l 1
 206 674 l 1
 346 666 l 1
433 0 m 1
 387 198 l 2
 377 240 368 298 362 398 c 1
 356 298 347 240 337 198 c 2
 290 0 l 1
 140 0 l 1
 3 482 l 1
 147 482 l 1
 195 238 l 2
 203 198 210 154 217 93 c 1
 224 154 231 198 240 238 c 2
 293 478 l 1
 436 478 l 1
 487 238 l 2
 495 198 503 153 511 93 c 1
 517 153 524 198 532 238 c 2
 580 482 l 1
 717 482 l 1
 581 0 l 1
 433 0 l 1
EndSplineSet
Validated: 1
EndChar

StartChar: x
Encoding: 120 120 129
Width: 454
Flags: MW
HStem: 0 482<-3 141 -6 150 316 461 -3 307>
VStem: -6 469
LayerCount: 2
Fore
SplineSet
301 241 m 1
 461 0 l 1
 307 0 l 1
 223 149 l 1
 141 0 l 1
 -6 0 l 1
 149 237 l 1
 -3 482 l 1
 150 482 l 1
 230 326 l 1
 316 482 l 1
 463 482 l 1
 301 241 l 1
EndSplineSet
Validated: 1
EndChar

StartChar: y
Encoding: 121 121 130
Width: 502
Flags: MW
HStem: -215 697<65 65>
VStem: 3 504<482 482>
LayerCount: 2
Fore
SplineSet
507 482 m 1
 339 29 l 2
 282 -122 188 -194 65 -215 c 1
 29 -105 l 1
 100 -88 153 -52 178 -3 c 1
 3 482 l 1
 158 482 l 1
 256 114 l 1
 357 482 l 1
 507 482 l 1
EndSplineSet
Validated: 1
EndChar

StartChar: yacute
Encoding: 253 253 131
Width: 502
Flags: MW
HStem: 537.5 133.5
VStem: 3 504<482 482>
LayerCount: 2
Fore
SplineSet
300 541 m 1
 203 534 l 1
 272 667 l 1
 412 675 l 1
 300 541 l 1
507 482 m 1
 339 29 l 2
 282 -122 188 -194 65 -215 c 1
 29 -105 l 1
 100 -88 153 -52 178 -3 c 1
 3 482 l 1
 158 482 l 1
 256 114 l 1
 357 482 l 1
 507 482 l 1
EndSplineSet
Validated: 1
EndChar

StartChar: ycircumflex
Encoding: 375 375 132
Width: 502
Flags: MW
HStem: 535 135<202 221 123 309 289 309 202 388 289 289>
VStem: 3 504<482 482>
LayerCount: 2
Fore
SplineSet
388 535 m 1
 289 535 l 1
 255 613 l 1
 221 535 l 1
 123 535 l 1
 202 670 l 1
 309 670 l 1
 388 535 l 1
507 482 m 1
 339 29 l 2
 282 -122 188 -194 65 -215 c 1
 29 -105 l 1
 100 -88 153 -52 178 -3 c 1
 3 482 l 1
 158 482 l 1
 256 114 l 1
 357 482 l 1
 507 482 l 1
EndSplineSet
Validated: 1
EndChar

StartChar: ydieresis
Encoding: 255 255 133
Width: 502
Flags: MW
HStem: 530 126<142.5 177.5 332.5 367.5>
VStem: 97 126<575.5 610.5> 287 126<575.5 610.5>
LayerCount: 2
Fore
SplineSet
160 656 m 0
 195 656 223 628 223 593 c 0
 223 558 195 530 160 530 c 0
 125 530 97 558 97 593 c 0
 97 628 125 656 160 656 c 0
350 656 m 0
 385 656 413 628 413 593 c 0
 413 558 385 530 350 530 c 0
 315 530 287 558 287 593 c 0
 287 628 315 656 350 656 c 0
507 482 m 1
 339 29 l 2
 282 -122 188 -194 65 -215 c 1
 29 -105 l 1
 100 -88 153 -52 178 -3 c 1
 3 482 l 1
 158 482 l 1
 256 114 l 1
 357 482 l 1
 507 482 l 1
EndSplineSet
Validated: 1
EndChar

StartChar: ygrave
Encoding: 7923 7923 134
Width: 502
Flags: MW
HStem: 537.5 133.5
VStem: 3 504<482 482>
LayerCount: 2
Fore
SplineSet
237 667 m 1
 306 534 l 1
 209 541 l 1
 97 675 l 1
 237 667 l 1
507 482 m 1
 339 29 l 2
 282 -122 188 -194 65 -215 c 1
 29 -105 l 1
 100 -88 153 -52 178 -3 c 1
 3 482 l 1
 158 482 l 1
 256 114 l 1
 357 482 l 1
 507 482 l 1
EndSplineSet
Validated: 1
EndChar

StartChar: z
Encoding: 122 122 135
Width: 427
Flags: MW
HStem: 0 104<187 395 187 395> 374 104<41 237 41 396>
VStem: 31 365<0 378 97 378>
LayerCount: 2
Fore
SplineSet
396 378 m 1
 187 104 l 1
 395 104 l 1
 395 0 l 1
 31 0 l 1
 31 97 l 1
 237 374 l 1
 41 374 l 1
 41 478 l 1
 396 478 l 1
 396 378 l 1
EndSplineSet
Validated: 1
EndChar

StartChar: fi
Encoding: 64257 64257 136
Width: 579
Flags: MW
HStem: 374 104<13 80 13 80 212 391 212 212> 635 110<299.5 377.5>
VStem: 80 132<0 374 0 374 0 485 0 565.5> 391 132<0 374 374 374>
LayerCount: 2
Fore
SplineSet
523 478 m 1
 523 0 l 1
 391 0 l 1
 391 374 l 1
 212 374 l 1
 212 0 l 1
 80 0 l 1
 80 374 l 1
 13 374 l 1
 13 478 l 1
 80 478 l 1
 80 485 l 2
 80 646 177 745 349 745 c 0
 413 745 466 730 503 699 c 1
 485 588 l 1
 444 621 405 635 350 635 c 0
 249 635 209 570 209 496 c 2
 209 478 l 1
 523 478 l 1
EndSplineSet
Validated: 1
Ligature2: "'liga' Standard Ligatures in Latin lookup 0 subtable" f i
EndChar

StartChar: fl
Encoding: 64258 64258 137
Width: 589
Flags: MW
HStem: 374 104<13 80 13 80 212 326> 635 110<293.5 345.5>
VStem: 80 132<0 374 0 374 478 496 496 507> 401 132<0 624 624 624>
LayerCount: 2
Fore
SplineSet
401 0 m 1
 401 624 l 1
 382 633 360 635 331 635 c 0
 256 635 212 576 212 507 c 2
 212 478 l 1
 326 478 l 1
 326 374 l 1
 212 374 l 1
 212 0 l 1
 80 0 l 1
 80 374 l 1
 13 374 l 1
 13 478 l 1
 80 478 l 1
 80 496 l 2
 80 653 192 745 335 745 c 0
 413 745 480 733 533 704 c 1
 533 0 l 1
 401 0 l 1
EndSplineSet
Validated: 1
Ligature2: "'liga' Standard Ligatures in Latin lookup 0 subtable" f l
EndChar

StartChar: zero
Encoding: 48 48 138
Width: 522
Flags: MW
HStem: -14 112<228.5 293.5 228.5 325.5> 564 112<228.5 293.5>
VStem: 28 142<257.5 404.5 257.5 460> 352 142<257.5 404.5>
LayerCount: 2
Fore
SplineSet
261 676 m 0
 390 676 494 589 494 331 c 0
 494 73 390 -14 261 -14 c 0
 132 -14 28 73 28 331 c 0
 28 589 132 676 261 676 c 0
261 564 m 0
 196 564 170 478 170 331 c 0
 170 184 196 98 261 98 c 0
 326 98 352 184 352 331 c 0
 352 478 326 564 261 564 c 0
EndSplineSet
Validated: 1
EndChar

StartChar: one
Encoding: 49 49 139
Width: 522
Flags: MW
HStem: 0 662<312 427 312 427 295 427>
VStem: 295 132<0 509 509 509>
LayerCount: 2
Fore
SplineSet
427 0 m 1
 295 0 l 1
 295 509 l 1
 101 397 l 1
 97 521 l 1
 312 662 l 1
 427 662 l 1
 427 0 l 1
EndSplineSet
Validated: 1
EndChar

StartChar: two
Encoding: 50 50 140
Width: 522
Flags: MW
HStem: 0 112<201 464 201 464> 564 112<215 257.5>
VStem: 330 142<440.5 500>
LayerCount: 2
Fore
SplineSet
84 504 m 1
 78 623 l 1
 129 659 183 676 247 676 c 0
 403 676 472 587 472 485 c 0
 472 393 416 314 321 225 c 2
 201 112 l 1
 464 112 l 1
 464 0 l 1
 43 0 l 1
 43 103 l 1
 220 283 l 2
 292 357 330 414 330 467 c 0
 330 533 293 564 222 564 c 0
 179 564 129 545 84 504 c 1
EndSplineSet
Validated: 1
EndChar

StartChar: three
Encoding: 51 51 141
Width: 522
Flags: MW
HStem: -14 112<176 238 176 276> 280 104<140 201 140 202.5> 564 112<203.5 244>
VStem: 316 142<465 509.5> 321 142<156.5 217>
LayerCount: 2
Fore
SplineSet
75 520 m 1xe8
 70 636 l 1
 118 663 175 676 232 676 c 0
 386 676 458 608 458 509 c 0xf0
 458 421 376 363 285 352 c 1
 408 341 463 271 463 184 c 0
 463 66 358 -14 194 -14 c 0
 140 -14 84 -4 38 19 c 1
 48 134 l 1
 99 110 151 98 201 98 c 0
 275 98 321 130 321 183 c 0xe8
 321 251 265 280 140 280 c 1
 140 384 l 1
 262 384 316 428 316 485 c 0xf0
 316 534 279 564 209 564 c 0
 164 564 111 547 75 520 c 1xe8
EndSplineSet
Validated: 1
EndChar

StartChar: four
Encoding: 52 52 142
Width: 522
Flags: MW
HStem: 151 112<160 288 420 509>
VStem: 290 130<263 397 397 425.5>
LayerCount: 2
Fore
SplineSet
420 263 m 1
 509 263 l 1
 509 151 l 1
 420 151 l 1
 420 1 l 1
 288 1 l 1
 288 151 l 1
 24 151 l 1
 24 255 l 1
 242 662 l 1
 420 662 l 1
 420 263 l 1
160 263 m 1
 290 263 l 1
 290 397 l 2
 290 454 291 496 296 546 c 1
 160 263 l 1
EndSplineSet
Validated: 1
EndChar

StartChar: five
Encoding: 53 53 143
Width: 522
Flags: MW
HStem: -10 112<196 259 196 286.5> 309 102.5 546 112<227 458 227 227>
VStem: 340 132<171.5 237.5>
LayerCount: 2
Fore
SplineSet
458 546 m 1
 227 546 l 1
 218 412 l 1
 236 411 l 2
 391 402 472 337 472 207 c 0
 472 70 356 -10 217 -10 c 0
 156 -10 103 -1 53 25 c 1
 61 141 l 1
 115 111 171 102 221 102 c 0
 297 102 340 142 340 201 c 0
 340 274 294 306 186 308 c 2
 88 310 l 1
 112 658 l 1
 458 658 l 1
 458 546 l 1
EndSplineSet
Validated: 1
EndChar

StartChar: six
Encoding: 54 54 144
Width: 522
Flags: MW
HStem: -10 110<235.5 289 235.5 313.5> 296 107<266 286> 557 115<436 445>
VStem: 34 130<169.5 231.5 169.5 406> 353 132<170.5 224.5>
LayerCount: 2
Fore
SplineSet
436 672 m 1
 445 557 l 1
 285 553 178 482 164 342 c 1
 196 388 239 403 293 403 c 0
 413 403 485 308 485 208 c 0
 485 65 368 -10 259 -10 c 0
 143 -10 34 74 34 250 c 0
 34 562 224 668 436 672 c 1
256 296 m 0
 201 296 164 261 164 202 c 0
 164 137 210 100 261 100 c 0
 317 100 353 144 353 197 c 0
 353 252 316 296 256 296 c 0
EndSplineSet
Validated: 1
EndChar

StartChar: seven
Encoding: 55 55 145
Width: 522
Flags: MW
HStem: 546 112<51 329 51 475>
VStem: 51 424<573 573 573 658 573 658>
LayerCount: 2
Fore
SplineSet
475 573 m 1
 213 1 l 1
 80 1 l 1
 329 546 l 1
 51 546 l 1
 51 658 l 1
 475 658 l 1
 475 573 l 1
EndSplineSet
Validated: 1
EndChar

StartChar: eight
Encoding: 56 56 146
Width: 522
Flags: MW
HStem: -10 112<237.5 286.5 237.5 324.5> 560 112<246.5 291>
VStem: 37 142<155.5 198> 56 142<460.5 505.5 460.5 546> 337 142<464 504.5> 343 142<158 201.5>
LayerCount: 2
Fore
SplineSet
269 672 m 0xd8
 397 672 479 600 479 501 c 0xd8
 479 427 440 370 370 341 c 1
 458 290 485 239 485 168 c 0
 485 57 392 -10 257 -10 c 0
 119 -10 37 57 37 158 c 0xe4
 37 238 79 296 160 332 c 1
 93 363 56 419 56 493 c 0
 56 599 144 672 269 672 c 0xd8
269 560 m 0
 224 560 198 527 198 484 c 0
 198 437 219 403 270 383 c 1
 320 403 337 437 337 482 c 0
 337 527 313 560 269 560 c 0
255 290 m 1xe4
 200 252 179 226 179 177 c 0
 179 134 215 102 260 102 c 0
 313 102 343 139 343 177 c 0
 343 226 327 256 255 290 c 1xe4
EndSplineSet
Validated: 1
EndChar

StartChar: nine
Encoding: 57 57 147
Width: 522
Flags: MW
HStem: -10 115<72 81> 259 107<231 251> 562 110<228 281.5>
VStem: 32 132<437.5 491.5 437.5 525.5> 353 130<430.5 492.5>
LayerCount: 2
Fore
SplineSet
81 -10 m 1
 72 105 l 1
 232 109 339 180 353 320 c 1
 321 274 278 259 224 259 c 0
 104 259 32 354 32 454 c 0
 32 597 149 672 258 672 c 0
 374 672 483 588 483 412 c 0
 483 100 293 -6 81 -10 c 1
256 562 m 0
 200 562 164 518 164 465 c 0
 164 410 201 366 261 366 c 0
 316 366 353 401 353 460 c 0
 353 525 307 562 256 562 c 0
EndSplineSet
Validated: 1
EndChar

StartChar: asterisk
Encoding: 42 42 148
Width: 460
Flags: MW
HStem: 256 399<158 287 173 302>
VStem: 21 418<461 461>
LayerCount: 2
Fore
SplineSet
264 500 m 1
 404 570 l 1
 439 461 l 1
 285 435 l 1
 395 323 l 1
 302 256 l 1
 230 395 l 1
 158 256 l 1
 65 323 l 1
 175 435 l 1
 21 461 l 1
 56 570 l 1
 196 500 l 1
 173 655 l 1
 287 655 l 1
 264 500 l 1
EndSplineSet
Validated: 1
EndChar

StartChar: backslash
Encoding: 92 92 149
Width: 414
Flags: MW
HStem: -97 846<-15 429 -15 328>
VStem: -15 444
LayerCount: 2
Fore
SplineSet
429 -97 m 1
 328 -97 l 1
 -15 749 l 1
 87 749 l 1
 429 -97 l 1
EndSplineSet
Validated: 1
EndChar

StartChar: colon
Encoding: 58 58 150
Width: 309
Flags: MW
HStem: -10 152<129 171> 336 152<129 171>
VStem: 74 152<45 87 391 433>
LayerCount: 2
Fore
SplineSet
150 488 m 0
 192 488 226 454 226 412 c 0
 226 370 192 336 150 336 c 0
 108 336 74 370 74 412 c 0
 74 454 108 488 150 488 c 0
150 142 m 0
 192 142 226 108 226 66 c 0
 226 24 192 -10 150 -10 c 0
 108 -10 74 24 74 66 c 0
 74 108 108 142 150 142 c 0
EndSplineSet
Validated: 1
EndChar

StartChar: comma
Encoding: 44 44 151
Width: 309
Flags: MW
HStem: -147 279<8 211>
VStem: 8 203
LayerCount: 2
Fore
SplineSet
98 -142 m 1
 8 -147 l 1
 83 132 l 1
 211 132 l 1
 98 -142 l 1
EndSplineSet
Validated: 1
EndChar

StartChar: ellipsis
Encoding: 8230 8230 152
Width: 829
Flags: MW
HStem: -10 152<129 171 389 431 649 691>
VStem: 74 152<45 87> 334 152<45 87> 594 152<45 87>
LayerCount: 2
Fore
SplineSet
150 142 m 0
 192 142 226 108 226 66 c 0
 226 24 192 -10 150 -10 c 0
 108 -10 74 24 74 66 c 0
 74 108 108 142 150 142 c 0
410 142 m 0
 452 142 486 108 486 66 c 0
 486 24 452 -10 410 -10 c 0
 368 -10 334 24 334 66 c 0
 334 108 368 142 410 142 c 0
670 142 m 0
 712 142 746 108 746 66 c 0
 746 24 712 -10 670 -10 c 0
 628 -10 594 24 594 66 c 0
 594 108 628 142 670 142 c 0
EndSplineSet
Validated: 1
EndChar

StartChar: exclam
Encoding: 33 33 153
Width: 252
Flags: MW
HStem: -10 152<105 147>
VStem: 50 152<45 87> 70 112
LayerCount: 2
Fore
SplineSet
176 200 m 1xa0
 76 200 l 1
 64 688 l 1
 188 688 l 1
 176 200 l 1xa0
126 142 m 0xc0
 168 142 202 108 202 66 c 0
 202 24 168 -10 126 -10 c 0
 84 -10 50 24 50 66 c 0
 50 108 84 142 126 142 c 0xc0
EndSplineSet
Validated: 1
EndChar

StartChar: exclamdown
Encoding: 161 161 154
Width: 252
Flags: MW
HStem: 336 152<105 147>
VStem: 50 152<391 433> 70 112
LayerCount: 2
Fore
SplineSet
126 336 m 0xc0
 84 336 50 370 50 412 c 0
 50 454 84 488 126 488 c 0
 168 488 202 454 202 412 c 0
 202 370 168 336 126 336 c 0xc0
176 278 m 1xa0
 188 -210 l 1
 64 -210 l 1
 76 278 l 1
 176 278 l 1xa0
EndSplineSet
Validated: 1
EndChar

StartChar: numbersign
Encoding: 35 35 155
Width: 522
Flags: MW
HStem: 180 84<40 112 40 128 40 266 40 205 375 449> 398 84<75 155 75 171 417 484>
VStem: 40 444<180 482 264 482>
LayerCount: 2
Fore
SplineSet
401 398 m 1
 375 264 l 1
 449 264 l 1
 449 180 l 1
 359 180 l 1
 321 -20 l 1
 227 -20 l 1
 266 180 l 1
 205 180 l 1
 167 -20 l 1
 73 -20 l 1
 112 180 l 1
 40 180 l 1
 40 264 l 1
 128 264 l 1
 155 398 l 1
 75 398 l 1
 75 482 l 1
 171 482 l 1
 210 682 l 1
 302 682 l 1
 264 482 l 1
 325 482 l 1
 364 682 l 1
 455 682 l 1
 417 482 l 1
 484 482 l 1
 484 398 l 1
 401 398 l 1
282 262 m 1
 309 400 l 1
 248 400 l 1
 221 262 l 1
 282 262 l 1
EndSplineSet
Validated: 1
EndChar

StartChar: period
Encoding: 46 46 156
Width: 309
Flags: MW
HStem: -10 152<129 171>
VStem: 74 152<45 87>
LayerCount: 2
Fore
SplineSet
150 142 m 0
 192 142 226 108 226 66 c 0
 226 24 192 -10 150 -10 c 0
 108 -10 74 24 74 66 c 0
 74 108 108 142 150 142 c 0
EndSplineSet
Validated: 1
EndChar

StartChar: question
Encoding: 63 63 157
Width: 446
Flags: MW
HStem: -10 152<170 212> 586 112<181 210>
VStem: 115 152<45 87> 124 133<200 200> 274 144<496 536.5>
LayerCount: 2
Fore
SplineSet
50 537 m 1xc8
 46 650 l 1
 86 679 148 698 214 698 c 0
 333 698 418 629 418 531 c 0xc8
 418 461 388 415 317 330 c 0
 279 284 260 248 257 200 c 1
 124 200 l 1xd8
 126 258 141 297 191 359 c 0
 260 445 274 474 274 517 c 0
 274 556 239 586 181 586 c 0
 131 586 85 567 50 537 c 1xc8
191 142 m 0xe0
 233 142 267 108 267 66 c 0
 267 24 233 -10 191 -10 c 0
 149 -10 115 24 115 66 c 0
 115 108 149 142 191 142 c 0xe0
EndSplineSet
Validated: 1
EndChar

StartChar: questiondown
Encoding: 191 191 158
Width: 418
Flags: MW
HStem: -220 112<236 265> 336 152<234 276>
VStem: 28 144<-58.5 -18> 179 152<391 433> 189 133<278 278>
LayerCount: 2
Fore
SplineSet
255 336 m 0xd0
 213 336 179 370 179 412 c 0
 179 454 213 488 255 488 c 0
 297 488 331 454 331 412 c 0
 331 370 297 336 255 336 c 0xd0
396 -59 m 1
 400 -172 l 1
 360 -201 298 -220 232 -220 c 0
 113 -220 28 -151 28 -53 c 0xe0
 28 17 58 63 129 148 c 0
 167 194 186 230 189 278 c 1
 322 278 l 1xe8
 320 220 305 181 255 119 c 0
 186 33 172 4 172 -39 c 0
 172 -78 207 -108 265 -108 c 0xe0
 315 -108 361 -89 396 -59 c 1
EndSplineSet
Validated: 1
EndChar

StartChar: quotedbl
Encoding: 34 34 159
Width: 405
Flags: MW
HStem: 446 289<63 148 63 63 243 243 243 328>
VStem: 59 98 239 98
LayerCount: 2
Fore
SplineSet
148 446 m 1
 63 446 l 1
 55 735 l 1
 166 735 l 1
 148 446 l 1
328 446 m 1
 243 446 l 1
 235 735 l 1
 346 735 l 1
 328 446 l 1
EndSplineSet
Validated: 1
EndChar

StartChar: quotesingle
Encoding: 39 39 160
Width: 225
Flags: MW
HStem: 446 289<63 148 63 63>
VStem: 59 98
LayerCount: 2
Fore
SplineSet
148 446 m 1
 63 446 l 1
 55 735 l 1
 166 735 l 1
 148 446 l 1
EndSplineSet
Validated: 1
EndChar

StartChar: semicolon
Encoding: 59 59 161
Width: 309
Flags: MW
HStem: 336 152<129 171 129 171>
VStem: 74 152<391 433>
LayerCount: 2
Fore
SplineSet
150 488 m 0
 192 488 226 454 226 412 c 0
 226 370 192 336 150 336 c 0
 107 336 74 370 74 412 c 0
 74 454 108 488 150 488 c 0
98 -142 m 1
 8 -147 l 1
 83 132 l 1
 211 132 l 1
 98 -142 l 1
EndSplineSet
Validated: 1
EndChar

StartChar: slash
Encoding: 47 47 162
Width: 414
Flags: MW
HStem: -97 846<-15 429 -15 429>
VStem: -15 444
LayerCount: 2
Fore
SplineSet
86 -97 m 1
 -15 -97 l 1
 327 749 l 1
 429 749 l 1
 86 -97 l 1
EndSplineSet
Validated: 1
EndChar

StartChar: underscore
Encoding: 95 95 163
Width: 500
Flags: MW
HStem: -133 84<0 500 0 500>
VStem: 0 500<-133 -49 -133 -49>
LayerCount: 2
Fore
SplineSet
500 -133 m 1
 0 -133 l 1
 0 -49 l 1
 500 -49 l 1
 500 -133 l 1
EndSplineSet
Validated: 1
EndChar

StartChar: braceleft
Encoding: 123 123 164
Width: 403
Flags: HMW
HStem: -102 84<306.5 336 306.5 336> 282 88<91 119.5> 670 84<306.5 336>
VStem: 91 168<229 370 229 370> 155.5 88.5 155.5 96.5
LayerCount: 2
Fore
SplineSet
336 754 m 1xe4
 336 670 l 1
 281.947566745 670 243.002855332 650.695688756 243.002855332 589.787946994 c 0
 243.002855332 584.212895151 243.329143492 578.28927976 244 572 c 2xe8
 259 423 l 2
 259.573640155 417.741631917 259.854779841 412.702639184 259.854779841 407.882147897 c 0
 259.854779841 362.282619781 234.697698841 336.235146461 194 329 c 1xf0
 238.305758168 320.862207683 259.719385644 293.102589059 259.719385644 244.981892519 c 0
 259.719385644 239.883453941 259.479004269 234.556449515 259 229 c 2
 245 80 l 2
 244.455417999 74.1651928498 244.189248234 68.6451125748 244.189248234 63.4261041113 c 0
 244.189248234 1.56052439908 281.590048292 -18 336 -18 c 1
 336 -102 l 1
 227.103095146 -102 147.659782238 -73.4126901699 147.659782238 39.3956512058 c 0
 147.659782238 47.7897990895 148.099656095 56.6502748316 149 66 c 2
 162 197 l 2xe4
 162.859909306 205.107716312 163.297279175 212.506169998 163.297279175 219.247267572 c 0
 163.297279175 267.3813559 140.997881367 282 91 282 c 1
 91 370 l 1xf0
 140.997881367 370 163.297279175 384.6186441 163.297279175 432.752732428 c 0
 163.297279175 439.493830002 162.859909306 446.892283688 162 455 c 2
 149 586 l 2xe8
 148.099656095 595.349725168 147.659782238 604.210200911 147.659782238 612.604348794 c 0
 147.659782238 725.41269017 227.103095146 754 336 754 c 1xe4
EndSplineSet
Validated: 524289
EndChar

StartChar: braceright
Encoding: 125 125 165
Width: 403
Flags: HMW
HStem: -102 84<67 96.5 67 125.5> 282 88<283.5 312> 670 84<67 96.5>
VStem: 144 168<229 370 282 423> 151 96.5 159 88.5
LayerCount: 2
Fore
SplineSet
67 670 m 1xe8
 67 754 l 1
 175.896904854 754 255.340217762 725.41269017 255.340217762 612.604348794 c 0
 255.340217762 604.210200911 254.900343905 595.349725168 254 586 c 2
 241 455 l 2xe8
 240.140090694 446.892283688 239.702720825 439.493830002 239.702720825 432.752732428 c 0
 239.702720825 384.6186441 262.002118633 370 312 370 c 1
 312 282 l 1xf0
 262.002118633 282 239.702720825 267.3813559 239.702720825 219.247267572 c 0
 239.702720825 212.506169998 240.140090694 205.107716312 241 197 c 2
 254 66 l 2
 254.900343905 56.6502748316 255.340217762 47.7897990895 255.340217762 39.3956512058 c 0
 255.340217762 -73.4126901699 175.896904854 -102 67 -102 c 1
 67 -18 l 1
 121.052433255 -18 159.997144668 1.30431124361 159.997144668 62.2120530057 c 0
 159.997144668 67.7871048486 159.670856508 73.7107202399 159 80 c 2xe4
 144 229 l 2
 143.426359845 234.258368083 143.145220159 239.297360816 143.145220159 244.117852103 c 0
 143.145220159 289.717380219 168.302301159 315.764853539 209 323 c 1xf0
 164.694241832 331.137792317 143.280614356 358.897410941 143.280614356 407.018107481 c 0
 143.280614356 412.116546059 143.520995731 417.443550485 144 423 c 2
 158 572 l 2
 158.544582001 577.83480715 158.810751766 583.354887425 158.810751766 588.573895889 c 0
 158.810751766 650.439475601 121.409951708 670 67 670 c 1xe8
EndSplineSet
Validated: 524289
EndChar

StartChar: bracketleft
Encoding: 91 91 166
Width: 423
Flags: MW
HStem: -97 84<204 356 204 356> 665 84<204 356 204 204>
VStem: 110 94<-13 665 -13 749 -13 749>
LayerCount: 2
Fore
SplineSet
356 665 m 1
 204 665 l 1
 204 -13 l 1
 356 -13 l 1
 356 -97 l 1
 110 -97 l 1
 110 749 l 1
 356 749 l 1
 356 665 l 1
EndSplineSet
Validated: 1
EndChar

StartChar: bracketright
Encoding: 93 93 167
Width: 423
Flags: MW
HStem: -97 84<67 219 67 313 67 219> 665 84<67 219 67 313>
VStem: 219 94<-13 665 665 665>
LayerCount: 2
Fore
SplineSet
313 -97 m 1
 67 -97 l 1
 67 -13 l 1
 219 -13 l 1
 219 665 l 1
 67 665 l 1
 67 749 l 1
 313 749 l 1
 313 -97 l 1
EndSplineSet
Validated: 1
EndChar

StartChar: parenleft
Encoding: 40 40 168
Width: 367
Flags: MW
HStem: -103 858<248 248>
VStem: 82 104<245 407 245 419.5>
LayerCount: 2
Fore
SplineSet
248 755 m 1
 310 711 l 1
 236 604 186 488 186 326 c 0
 186 164 236 48 310 -59 c 1
 248 -103 l 1
 161 -13 82 139 82 326 c 0
 82 513 161 665 248 755 c 1
EndSplineSet
Validated: 1
EndChar

StartChar: parenright
Encoding: 41 41 169
Width: 366
Flags: MW
HStem: -103 858<119 119>
VStem: 181 104<245 407>
LayerCount: 2
Fore
SplineSet
57 711 m 1
 119 755 l 1
 206 665 285 513 285 326 c 0
 285 139 206 -13 119 -103 c 1
 57 -59 l 1
 131 48 181 164 181 326 c 0
 181 488 131 604 57 711 c 1
EndSplineSet
Validated: 1
EndChar

StartChar: emdash
Encoding: 8212 8212 170
Width: 1000
Flags: MW
HStem: 228 84<56 944 56 944>
VStem: 56 888<228 312 228 312>
LayerCount: 2
Fore
SplineSet
944 228 m 1
 56 228 l 1
 56 312 l 1
 944 312 l 1
 944 228 l 1
EndSplineSet
Validated: 1
EndChar

StartChar: endash
Encoding: 8211 8211 171
Width: 500
Flags: MW
HStem: 228 84<56 444 56 444>
VStem: 56 388<228 312 228 312>
LayerCount: 2
Fore
SplineSet
444 228 m 1
 56 228 l 1
 56 312 l 1
 444 312 l 1
 444 228 l 1
EndSplineSet
Validated: 1
EndChar

StartChar: hyphen
Encoding: 45 45 172
Width: 348
Flags: MW
HStem: 228 84<56 292 56 292>
VStem: 56 236<228 312 228 312>
LayerCount: 2
Fore
SplineSet
292 228 m 1
 56 228 l 1
 56 312 l 1
 292 312 l 1
 292 228 l 1
EndSplineSet
Validated: 1
EndChar

StartChar: guillemotleft
Encoding: 171 171 173
Width: 546
Flags: MW
HStem: 83 338<185 300 185 300 185 385 385 500>
VStem: 66 434<83 252>
LayerCount: 2
Fore
SplineSet
181 252 m 1
 300 83 l 1
 185 83 l 1
 66 252 l 1
 185 421 l 1
 300 421 l 1
 181 252 l 1
381 252 m 1
 500 83 l 1
 385 83 l 1
 266 252 l 1
 385 421 l 1
 500 421 l 1
 381 252 l 1
EndSplineSet
Validated: 1
EndChar

StartChar: guillemotright
Encoding: 187 187 174
Width: 546
Flags: MW
HStem: 83 338<46 161 46 161 46 246 246 361>
VStem: 46 434<83 252 252 421>
LayerCount: 2
Fore
SplineSet
280 252 m 1
 161 83 l 1
 46 83 l 1
 165 252 l 1
 46 421 l 1
 161 421 l 1
 280 252 l 1
480 252 m 1
 361 83 l 1
 246 83 l 1
 365 252 l 1
 246 421 l 1
 361 421 l 1
 480 252 l 1
EndSplineSet
Validated: 1
EndChar

StartChar: guilsinglleft
Encoding: 8249 8249 175
Width: 346
Flags: MW
HStem: 83 338<185 300 185 300>
VStem: 66 234<83 252>
LayerCount: 2
Fore
SplineSet
181 252 m 1
 300 83 l 1
 185 83 l 1
 66 252 l 1
 185 421 l 1
 300 421 l 1
 181 252 l 1
EndSplineSet
Validated: 1
EndChar

StartChar: guilsinglright
Encoding: 8250 8250 176
Width: 346
Flags: MW
HStem: 83 338<46 161 46 161>
VStem: 46 234<83 252 252 421>
LayerCount: 2
Fore
SplineSet
280 252 m 1
 161 83 l 1
 46 83 l 1
 165 252 l 1
 46 421 l 1
 161 421 l 1
 280 252 l 1
EndSplineSet
Validated: 1
EndChar

StartChar: quotedblbase
Encoding: 8222 8222 177
Width: 499
Flags: MW
HStem: -144.5 276.5
VStem: 8 393<-147 132>
LayerCount: 2
Fore
SplineSet
98 -142 m 1
 8 -147 l 1
 83 132 l 1
 211 132 l 1
 98 -142 l 1
288 -142 m 1
 198 -147 l 1
 273 132 l 1
 401 132 l 1
 288 -142 l 1
EndSplineSet
Validated: 1
EndChar

StartChar: quotedblleft
Encoding: 8220 8220 178
Width: 428
Flags: MW
HStem: 446 289<24 233 204 233>
VStem: 24 389<446 735>
LayerCount: 2
Fore
SplineSet
148 451 m 1
 24 446 l 1
 147 730 l 1
 233 735 l 1
 148 451 l 1
328 451 m 1
 204 446 l 1
 327 730 l 1
 413 735 l 1
 328 451 l 1
EndSplineSet
Validated: 1
EndChar

StartChar: quotedblright
Encoding: 8221 8221 179
Width: 434
Flags: MW
HStem: 446 289<19 228 199 228>
VStem: 19 389<446 735>
LayerCount: 2
Fore
SplineSet
105 451 m 1
 19 446 l 1
 104 730 l 1
 228 735 l 1
 105 451 l 1
285 451 m 1
 199 446 l 1
 284 730 l 1
 408 735 l 1
 285 451 l 1
EndSplineSet
Validated: 1
EndChar

StartChar: quoteleft
Encoding: 8216 8216 180
Width: 248
Flags: MW
HStem: 446 289<24 233>
VStem: 24 209
LayerCount: 2
Fore
SplineSet
148 451 m 1
 24 446 l 1
 147 730 l 1
 233 735 l 1
 148 451 l 1
EndSplineSet
Validated: 1
EndChar

StartChar: quoteright
Encoding: 8217 8217 181
Width: 254
Flags: MW
HStem: 446 289<19 228>
VStem: 19 209
LayerCount: 2
Fore
SplineSet
105 451 m 1
 19 446 l 1
 104 730 l 1
 228 735 l 1
 105 451 l 1
EndSplineSet
Validated: 1
EndChar

StartChar: dollar
Encoding: 36 36 183
Width: 522
Flags: MW
HStem: -46 183<206 245 193.5 300 206 206> 525 183<267 305 211 319>
VStem: 69 139<446 483.5 446 503> 206 94<-46 30 30 30> 211 94<631 708 631 708 631 708> 312 139<184.5 222.5>
LayerCount: 2
Fore
SplineSet
438 594 m 1xd0
 424 484 l 1
 392 509 345 525 293 525 c 0
 241 525 208 503 208 464 c 0
 208 428 235 404 312 381 c 0
 409 352 451 301 451 220 c 0xe4
 451 132 386 68 300 42 c 1
 300 -46 l 1
 206 -46 l 1
 206 30 l 1xd0
 155 31 102 39 50 58 c 1
 65 169 l 1
 121 146 170 137 217 137 c 0
 273 137 312 165 312 204 c 0
 312 241 290 265 218 288 c 0
 124 318 69 367 69 457 c 0xe4
 69 549 132 603 211 623 c 1
 211 708 l 1
 305 708 l 1
 305 631 l 1xc8
 362 628 411 613 438 594 c 1xd0
EndSplineSet
Validated: 1
EndChar

StartChar: sterling
Encoding: 163 163 184
Width: 522
Flags: MW
HStem: 1 112<212 487 212 487> 285 84<45 133 45 145 45 133 288 452 288 288> 560 112<338.5 386.5 298 388.5>
VStem: 124 142<446 490 446 530> 149 142<202.5 240.5>
LayerCount: 2
Fore
SplineSet
452 285 m 1xf0
 288 285 l 1
 290 269 291 253 291 236 c 0
 291 169 256 131 212 113 c 1
 487 113 l 1
 487 1 l 1
 50 1 l 1
 50 105 l 1
 97 116 149 166 149 234 c 0
 149 247 148 263 145 285 c 1xe8
 45 285 l 1
 45 369 l 1
 133 369 l 1
 128 398 124 431 124 456 c 0
 124 604 236 672 360 672 c 0
 413 672 460 661 487 646 c 1
 482 534 l 1
 450 551 413 560 364 560 c 0
 313 560 266 521 266 459 c 0
 266 433 267 408 274 369 c 1
 452 369 l 1
 452 285 l 1xf0
EndSplineSet
Validated: 1
EndChar

StartChar: yen
Encoding: 165 165 185
Width: 522
Flags: MW
HStem: 157 84<76 193 76 193 325 441 325 325> 296 78<76 155 76 193 76 155 361 441>
VStem: 193 132<0 157 0 157 0 296>
LayerCount: 2
Fore
SplineSet
361 374 m 1
 441 374 l 1
 441 296 l 1
 324 296 l 1
 324 241 l 1
 441 241 l 1
 441 157 l 1
 325 157 l 1
 325 0 l 1
 193 0 l 1
 193 157 l 1
 76 157 l 1
 76 241 l 1
 193 241 l 1
 193 296 l 1
 76 296 l 1
 76 374 l 1
 155 374 l 1
 14 655 l 1
 154 655 l 1
 262 380 l 1
 368 655 l 1
 508 655 l 1
 361 374 l 1
EndSplineSet
Validated: 1
EndChar

StartChar: asciitilde
Encoding: 126 126 186
Width: 566
Flags: MW
HStem: 169 88<386 412 386 440> 259 88<154 180>
VStem: 38 85<167 199.5 167 234> 443 85<316.5 349>
LayerCount: 2
Fore
SplineSet
443 349 m 1
 528 349 l 1
 528 215 481 169 399 169 c 0xb0
 363 169 326 183 270 217 c 0
 209 254 190 259 170 259 c 0
 138 259 123 232 123 167 c 1
 38 167 l 1
 38 301 88 347 167 347 c 0x70
 203 347 234 338 296 299 c 0
 347 267 376 257 396 257 c 0
 428 257 443 284 443 349 c 1
EndSplineSet
Validated: 1
EndChar

StartChar: equal
Encoding: 61 61 187
Width: 578
Flags: MW
HStem: 127 84<56 522 56 522> 329 84<56 522 56 522>
VStem: 56 466<127 211 127 211 329 413 127 413>
LayerCount: 2
Fore
SplineSet
522 329 m 1
 56 329 l 1
 56 413 l 1
 522 413 l 1
 522 329 l 1
522 127 m 1
 56 127 l 1
 56 211 l 1
 522 211 l 1
 522 127 l 1
EndSplineSet
Validated: 1
EndChar

StartChar: greater
Encoding: 62 62 188
Width: 555
Flags: MW
HStem: 6 489<66 66>
VStem: 66 401<6 304 114 304 196 495 196 495>
LayerCount: 2
Fore
SplineSet
467 304 m 1
 467 196 l 1
 66 6 l 1
 66 114 l 1
 374 249 l 1
 66 385 l 1
 66 495 l 1
 467 304 l 1
EndSplineSet
Validated: 1
EndChar

StartChar: less
Encoding: 60 60 189
Width: 555
Flags: MW
HStem: 6 489<467 467>
VStem: 66 401<6 305 6 305>
LayerCount: 2
Fore
SplineSet
467 387 m 1
 159 252 l 1
 467 116 l 1
 467 6 l 1
 66 197 l 1
 66 305 l 1
 467 495 l 1
 467 387 l 1
EndSplineSet
Validated: 1
EndChar

StartChar: percent
Encoding: 37 37 190
Width: 838
Flags: MW
HStem: -10 84<614.5 655.5 614.5 679.5> 258 84<614.5 655.5> 320 84<182.5 223.5 182.5 247.5> 588 84<182.5 223.5>
VStem: 40 104<471 521 471 553> 262 104<471 521> 472 104<141 191 141 223> 694 104<141 191>
LayerCount: 2
Fore
SplineSet
298 -20 m 1xbf
 194 -20 l 1
 538 682 l 1
 644 682 l 1
 298 -20 l 1xbf
203 672 m 0
 292 672 366 610 366 496 c 0
 366 383 292 320 203 320 c 0
 113 320 40 383 40 496 c 0
 40 610 113 672 203 672 c 0
203 588 m 0
 162 588 144 546 144 496 c 0
 144 446 162 404 203 404 c 0
 244 404 262 446 262 496 c 0
 262 546 244 588 203 588 c 0
635 342 m 0xdf
 724 342 798 280 798 166 c 0
 798 53 724 -10 635 -10 c 0
 545 -10 472 53 472 166 c 0
 472 280 545 342 635 342 c 0xdf
635 258 m 0
 594 258 576 216 576 166 c 0
 576 116 594 74 635 74 c 0
 676 74 694 116 694 166 c 0
 694 216 676 258 635 258 c 0
EndSplineSet
Validated: 1
EndChar

StartChar: plus
Encoding: 43 43 191
Width: 542
Flags: MW
HStem: 228 84<49 224 49 224 318 493>
VStem: 224 94<30 228 30 228 312 510>
LayerCount: 2
Fore
SplineSet
318 312 m 1
 493 312 l 1
 493 228 l 1
 318 228 l 1
 318 30 l 1
 224 30 l 1
 224 228 l 1
 49 228 l 1
 49 312 l 1
 224 312 l 1
 224 510 l 1
 318 510 l 1
 318 312 l 1
EndSplineSet
Validated: 1
EndChar

StartChar: ampersand
Encoding: 38 38 192
Width: 667
Flags: MW
HStem: -10 112<253.5 296> 590 108<279 309.5>
VStem: 44 142<172 218.5 172 225.5> 111 132<507 543.5 507 563> 340 135<516 550>
LayerCount: 2
Fore
SplineSet
489 0 m 1xe8
 450 45 l 1
 397 9 332 -10 260 -10 c 0
 143 -10 44 66 44 184 c 0xe8
 44 267 92 321 171 371 c 1
 128 425 111 465 111 516 c 0xd8
 111 610 178 698 296 698 c 0
 406 698 475 626 475 543 c 0
 475 465 445 418 341 352 c 1
 458 222 l 1
 480 261 495 304 501 346 c 1
 621 346 l 1
 610 262 582 189 540 131 c 1
 659 0 l 1
 489 0 l 1xe8
294 590 m 0xd8
 264 590 243 563 243 524 c 0
 243 490 251 463 275 429 c 1
 331 464 340 497 340 535 c 0
 340 565 325 590 294 590 c 0xd8
376 131 m 1
 237 292 l 1
 197 264 186 239 186 198 c 0
 186 146 222 102 285 102 c 0xe8
 318 102 348 113 376 131 c 1
EndSplineSet
Validated: 1
EndChar

StartChar: asciicircum
Encoding: 94 94 193
Width: 506
Flags: MW
HStem: 471 70<254 254>
VStem: 44 418<225 225>
LayerCount: 2
Fore
SplineSet
462 225 m 1
 358 225 l 1
 254 471 l 1
 147 225 l 1
 44 225 l 1
 195 541 l 1
 314 541 l 1
 462 225 l 1
EndSplineSet
Validated: 1
EndChar

StartChar: at
Encoding: 64 64 194
Width: 829
Flags: HMW
HStem: -136 81<321 432> 46 97<379 384.5> 51 89<595 633.5 595 634.5> 327 97<412.5 445.5> 528 81<366 529>
VStem: 48 88<126 302 126 321.5> 230 114<180.5 242.5 180.5 262.5> 480 89.67 690 88<241 359.5>
LayerCount: 2
Fore
SplineSet
605 3 m 1xbf80
 614 -78 l 1
 543 -119 474 -136 390 -136 c 0
 207 -136 48 -16 48 195 c 0
 48 448 244 609 458 609 c 0
 653 609 778 458 778 294 c 0
 778 126 682 51 587 51 c 0xbf80
 535 51 488 83 480 128 c 1
 452 72 411 46 358 46 c 0xdf80
 287 46 230 100 230 191 c 0
 230 334 326 424 464 424 c 0
 518 424 570 409 599 390 c 1
 572 220 l 2
 570.278187038 208.903872026 569.434785892 199.125361774 569.434785892 190.566439374 c 0
 569.434785892 154.387458574 584.504626743 140 612 140 c 0
 655 140 690 196 690 286 c 0
 690 433 613 528 445 528 c 0
 287 528 136 392 136 212 c 0
 136 40 241 -55 401 -55 c 0
 475 -55 537 -37 605 3 c 1xbf80
466 239 m 2xdf80
 482 323 l 1
 469 326 455 327 436 327 c 0
 389 327 344 283 344 202 c 0
 344 159 366 143 392 143 c 0
 431 143 456 184 466 239 c 2xdf80
EndSplineSet
Validated: 524289
EndChar

StartChar: bar
Encoding: 124 124 195
Width: 294
Flags: MW
HStem: -235 1000<100 194 100 194>
VStem: 100 94<-235 765>
LayerCount: 2
Fore
SplineSet
194 -235 m 1
 100 -235 l 1
 100 765 l 1
 194 765 l 1
 194 -235 l 1
EndSplineSet
Validated: 1
EndChar

StartChar: Euro
Encoding: 8364 8364 196
Width: 522
Flags: HMW
HStem: -10 112<325 375> 204 84<31 64 31 75 25 64 212 397 212 212> 356 84<45 64 38 72 214 411> 560 112<325.5 400.5>
VStem: 64 139<288 356 288 356>
LayerCount: 2
Fore
SplineSet
45 440 m 1
 72 440 l 1
 102 607 234 672 376 672 c 0
 429 672 477 661 501 646 c 1
 495 531 l 1
 463 554 423 560 378 560 c 0
 273 560 236 516 214 440 c 1
 419 440 l 1
 411 356 l 1
 203 356 l 1
 202 348.5 201.5 336.25 201.5 323.5 c 0
 201.5 310.75 202 297.5 203 288 c 1
 404 288 l 1
 397 204 l 1
 212 204 l 1
 227 127 282 102 368 102 c 0
 415 102 460 115 490 134 c 1
 497 22 l 1
 457 -1 404 -10 346 -10 c 0
 204 -10 102 51 75 204 c 1
 25 204 l 1
 31 288 l 1
 64 288 l 1
 63 297 62.5 309.75 62.5 322.375 c 0
 62.5 335 63 347.5 64 356 c 1
 38 356 l 1
 45 440 l 1
EndSplineSet
Validated: 524289
EndChar

StartChar: acute
Encoding: 180 180 197
Width: 500
Flags: MW
HStem: 536.5 133.5
VStem: 146 209<533 674>
LayerCount: 2
Fore
SplineSet
243 540 m 1
 146 533 l 1
 215 666 l 1
 355 674 l 1
 243 540 l 1
EndSplineSet
Validated: 1
EndChar

StartChar: breve
Encoding: 728 728 198
Width: 500
Flags: MW
HStem: 535 69<236.5 263.5 236.5 288.5>
VStem: 129 73<622.5 663> 298 73<622.5 663>
LayerCount: 2
Fore
SplineSet
129 663 m 1
 202 663 l 1
 204 624 223 604 250 604 c 0
 277 604 296 624 298 663 c 1
 371 663 l 1
 371 582 327 535 250 535 c 0
 172 535 129 582 129 663 c 1
EndSplineSet
Validated: 1
EndChar

StartChar: cedilla
Encoding: 184 184 199
Width: 500
Flags: MW
HStem: -201 66<212 236.5 212 257.5> -79 81
VStem: 265 84<-116 -99>
LayerCount: 2
Fore
SplineSet
299 1 m 1
 279 -34 l 1
 327 -39 349 -70 349 -109 c 0
 349 -171 294 -201 221 -201 c 0
 196 -201 167 -196 145 -184 c 1
 172 -126 l 1
 188 -133 202 -135 222 -135 c 0
 251 -135 265 -123 265 -109 c 0
 265 -89 246 -79 190 -79 c 1
 227 3 l 1
 299 1 l 1
EndSplineSet
Validated: 1
EndChar

StartChar: circumflex
Encoding: 710 710 200
Width: 500
Flags: MW
HStem: 534 135<197 216 118 304 284 304 197 383 284 284>
VStem: 118 265<534 534>
LayerCount: 2
Fore
SplineSet
383 534 m 1
 284 534 l 1
 250 612 l 1
 216 534 l 1
 118 534 l 1
 197 669 l 1
 304 669 l 1
 383 534 l 1
EndSplineSet
Validated: 1
EndChar

StartChar: dieresis
Encoding: 168 168 201
Width: 500
Flags: MW
HStem: 529 126<137.5 172.5 327.5 362.5>
VStem: 92 126<574.5 609.5> 282 126<574.5 609.5>
LayerCount: 2
Fore
SplineSet
155 655 m 0
 190 655 218 627 218 592 c 0
 218 557 190 529 155 529 c 0
 120 529 92 557 92 592 c 0
 92 627 120 655 155 655 c 0
345 655 m 0
 380 655 408 627 408 592 c 0
 408 557 380 529 345 529 c 0
 310 529 282 557 282 592 c 0
 282 627 310 655 345 655 c 0
EndSplineSet
Validated: 1
EndChar

StartChar: grave
Encoding: 96 96 202
Width: 500
Flags: MW
HStem: 536.5 133.5
VStem: 146 209<533 674>
LayerCount: 2
Fore
SplineSet
286 666 m 1
 355 533 l 1
 258 540 l 1
 146 674 l 1
 286 666 l 1
EndSplineSet
Validated: 1
EndChar

StartChar: ring
Encoding: 730 730 203
Width: 500
Flags: MW
HStem: 518 48<241.5 258.5 241.5 274.5> 638 48<241.5 258.5>
VStem: 155 63<591 612.5 591 629.5> 282 63<591 612.5>
LayerCount: 2
Fore
SplineSet
250 686 m 0
 299 686 345 657 345 602 c 0
 345 547 299 518 250 518 c 0
 201 518 155 547 155 602 c 0
 155 657 201 686 250 686 c 0
250 638 m 0
 233 638 218 623 218 602 c 0
 218 580 233 566 250 566 c 0
 267 566 282 580 282 602 c 0
 282 623 267 638 250 638 c 0
EndSplineSet
Validated: 1
EndChar

StartChar: tilde
Encoding: 732 732 204
Width: 500
Flags: MW
HStem: 548 109<171 178 116 202.5> 549 81<298.5 304 292.5 329>
VStem: 116 62<548 554.5 548 571 548 601.5> 322 62<651.5 658>
LayerCount: 2
Fore
SplineSet
384 658 m 1xb0
 384 635 l 2
 384 574 351 549 307 549 c 0
 290 549 268 556 244 565 c 0
 223 573 210 576 201 576 c 0
 187 576 178 561 178 548 c 1
 116 548 l 1
 116 571 l 2
 116 632 149 657 193 657 c 0xb0
 212 657 231 650 255 641 c 0
 275 633 288 630 297 630 c 0x70
 311 630 322 645 322 658 c 1
 384 658 l 1xb0
EndSplineSet
Validated: 1
EndChar

StartChar: Ccaron
Encoding: 268 268 205
Width: 614
Flags: W
HStem: -14 112<305.223 524.296> 590 112<305.45 536.084> 735 21G<299.296 429.704>
VStem: 38 142<232.019 461.225>
LayerCount: 2
Fore
SplineSet
497 870 m 1
 418 735 l 1
 311 735 l 1
 232 870 l 1
 330 870 l 1
 364 792 l 1
 398 870 l 1
 497 870 l 1
575 142 m 1
 585 29 l 1
 529 -1 455 -14 382 -14 c 0
 180 -14 38 108 38 341 c 0
 38 577 209 702 405 702 c 0
 492 702 554 686 595 662 c 1
 582 548 l 1
 536 573 477 590 405 590 c 0
 284 590 180 508 180 352 c 0
 180 192 269 98 402 98 c 0
 464 98 516 112 575 142 c 1
EndSplineSet
Validated: 1
EndChar

StartChar: ccaron
Encoding: 269 269 206
Width: 436
Flags: W
HStem: -10 106<225.269 396.002> 382 110<225.498 406.848>
VStem: 30 136<158.894 323.319>
LayerCount: 2
Fore
SplineSet
385 669 m 1
 306 534 l 1
 199 534 l 1
 120 669 l 1
 218 669 l 1
 252 591 l 1
 286 669 l 1
 385 669 l 1
401 120 m 1
 410 16 l 1
 373 -2 323 -10 270 -10 c 0
 128 -10 30 80 30 236 c 0
 30 390 145 492 285 492 c 0
 338 492 384 484 415 468 c 1
 406 360 l 1
 378 373 342 382 300 382 c 0
 222 382 166 327 166 242 c 0
 166 152 222 96 298 96 c 0
 332 96 369 104 401 120 c 1
EndSplineSet
Validated: 1
EndChar

StartChar: cacute
Encoding: 263 263 207
Width: 436
Flags: W
HStem: -10 106<225.269 396.002> 382 110<225.498 406.848>
VStem: 30 136<158.894 323.319>
LayerCount: 2
Fore
SplineSet
298 540 m 1
 201 533 l 1
 270 666 l 1
 410 674 l 1
 298 540 l 1
401 120 m 1
 410 16 l 1
 373 -2 323 -10 270 -10 c 0
 128 -10 30 80 30 236 c 0
 30 390 145 492 285 492 c 0
 338 492 384 484 415 468 c 1
 406 360 l 1
 378 373 342 382 300 382 c 0
 222 382 166 327 166 242 c 0
 166 152 222 96 298 96 c 0
 332 96 369 104 401 120 c 1
EndSplineSet
Validated: 1
EndChar

StartChar: Cacute
Encoding: 262 262 208
Width: 614
Flags: W
HStem: -14 112<305.223 524.296> 590 112<305.45 536.084> 735 21G<336.376 423>
VStem: 38 142<232.019 461.225>
LayerCount: 2
Fore
SplineSet
423 742 m 5
 326 735 l 5
 395 868 l 5
 535 876 l 5
 423 742 l 5
575 142 m 1
 585 29 l 1
 529 -1 455 -14 382 -14 c 0
 180 -14 38 108 38 341 c 0
 38 577 209 702 405 702 c 0
 492 702 554 686 595 662 c 1
 582 548 l 1
 536 573 477 590 405 590 c 0
 284 590 180 508 180 352 c 0
 180 192 269 98 402 98 c 0
 464 98 516 112 575 142 c 1
EndSplineSet
Validated: 1
EndChar

StartChar: scaron
Encoding: 353 353 209
Width: 391
Flags: W
HStem: -10 106<52.7569 221.944> 386 105<187.846 341.671>
VStem: 45 134<301.695 374.234> 230 133<107.396 174.293>
LayerCount: 2
Fore
SplineSet
363 669 m 1
 284 534 l 1
 177 534 l 1
 98 669 l 1
 196 669 l 1
 230 591 l 1
 264 669 l 1
 363 669 l 1
35 16 m 1
 45 121 l 1
 87 102 125 96 161 96 c 0
 204 96 230 113 230 140 c 0
 230 166 208 180 167 191 c 0
 82 213 45 257 45 332 c 0
 45 437 135 491 233 491 c 0
 288 491 326 482 354 470 c 1
 346 362 l 1
 316 378 284 386 248 386 c 0
 208 386 179 369 179 339 c 0
 179 312 200 296 233 288 c 0
 327 266 363 220 363 148 c 0
 363 50 273 -10 161 -10 c 0
 119 -10 71 -1 35 16 c 1
EndSplineSet
Validated: 1
EndChar

StartChar: Scaron
Encoding: 352 352 210
Width: 511
Flags: W
HStem: -14 112<77.0661 287.573> 590 112<227.459 411.948> 735 21G<233.296 363.704>
VStem: 53 139<442.355 556.971> 329 142<135.502 246.041>
LayerCount: 2
Fore
SplineSet
431 870 m 1
 352 735 l 1
 245 735 l 1
 166 870 l 1
 264 870 l 1
 298 792 l 1
 332 870 l 1
 431 870 l 1
36 17 m 1
 46 133 l 1
 91 110 151 98 194 98 c 0
 275 98 329 133 329 189 c 0
 329 243 288 275 210 300 c 0
 99 335 53 397 53 495 c 0
 53 640 179 702 312 702 c 0
 372 702 427 687 457 669 c 1
 447 550 l 1
 410 574 356 590 310 590 c 0
 238 590 192 556 192 502 c 0
 192 446 226 415 313 388 c 0
 424 353 471 289 471 203 c 0
 471 60 347 -14 191 -14 c 0
 145 -14 79 -4 36 17 c 1
EndSplineSet
Validated: 1
EndChar

StartChar: zcaron
Encoding: 382 382 211
Width: 427
Flags: W
HStem: 0 104<187 395> 374 104<41 237>
LayerCount: 2
Fore
SplineSet
363 669 m 1
 284 534 l 1
 177 534 l 1
 98 669 l 1
 196 669 l 1
 230 591 l 1
 264 669 l 1
 363 669 l 1
396 378 m 1
 187 104 l 1
 395 104 l 1
 395 0 l 1
 31 0 l 1
 31 97 l 1
 237 374 l 1
 41 374 l 1
 41 478 l 1
 396 478 l 1
 396 378 l 1
EndSplineSet
Validated: 1
EndChar

StartChar: Zcaron
Encoding: 381 381 212
Width: 564
Flags: W
HStem: 0 112<197 546> 572 112<57 374> 735 21G<233.296 363.704>
LayerCount: 2
Fore
SplineSet
431 870 m 1
 352 735 l 1
 245 735 l 1
 166 870 l 1
 264 870 l 1
 298 792 l 1
 332 870 l 1
 431 870 l 1
541 576 m 1
 197 112 l 1
 546 112 l 1
 546 0 l 1
 31 0 l 1
 31 105 l 1
 374 572 l 1
 57 572 l 1
 57 684 l 1
 541 684 l 1
 541 576 l 1
EndSplineSet
Validated: 1
EndChar
